%TF.GenerationSoftware,KiCad,Pcbnew,9.0.7*%
%TF.CreationDate,2026-06-30T10:07:01+01:00*%
%TF.ProjectId,James Swarbrigg Overpressure DAVID,4a616d65-7320-4537-9761-726272696767,rev?*%
%TF.SameCoordinates,Original*%
%TF.FileFunction,Copper,L2,Bot*%
%TF.FilePolarity,Positive*%
%FSLAX46Y46*%
G04 Gerber Fmt 4.6, Leading zero omitted, Abs format (unit mm)*
G04 Created by KiCad (PCBNEW 9.0.7) date 2026-06-30 10:07:01*
%MOMM*%
%LPD*%
G01*
G04 APERTURE LIST*
G04 Aperture macros list*
%AMRoundRect*
0 Rectangle with rounded corners*
0 $1 Rounding radius*
0 $2 $3 $4 $5 $6 $7 $8 $9 X,Y pos of 4 corners*
0 Add a 4 corners polygon primitive as box body*
4,1,4,$2,$3,$4,$5,$6,$7,$8,$9,$2,$3,0*
0 Add four circle primitives for the rounded corners*
1,1,$1+$1,$2,$3*
1,1,$1+$1,$4,$5*
1,1,$1+$1,$6,$7*
1,1,$1+$1,$8,$9*
0 Add four rect primitives between the rounded corners*
20,1,$1+$1,$2,$3,$4,$5,0*
20,1,$1+$1,$4,$5,$6,$7,0*
20,1,$1+$1,$6,$7,$8,$9,0*
20,1,$1+$1,$8,$9,$2,$3,0*%
G04 Aperture macros list end*
%TA.AperFunction,ComponentPad*%
%ADD10RoundRect,0.249999X-0.850001X-0.850001X0.850001X-0.850001X0.850001X0.850001X-0.850001X0.850001X0*%
%TD*%
%TA.AperFunction,ComponentPad*%
%ADD11C,2.200000*%
%TD*%
%TA.AperFunction,ComponentPad*%
%ADD12RoundRect,0.675000X-0.675000X-0.675000X0.675000X-0.675000X0.675000X0.675000X-0.675000X0.675000X0*%
%TD*%
%TA.AperFunction,ComponentPad*%
%ADD13C,2.700000*%
%TD*%
%TA.AperFunction,ComponentPad*%
%ADD14C,1.600000*%
%TD*%
%TA.AperFunction,ComponentPad*%
%ADD15RoundRect,0.250000X-0.550000X-0.550000X0.550000X-0.550000X0.550000X0.550000X-0.550000X0.550000X0*%
%TD*%
%TA.AperFunction,ComponentPad*%
%ADD16R,1.050000X1.500000*%
%TD*%
%TA.AperFunction,ComponentPad*%
%ADD17O,1.050000X1.500000*%
%TD*%
%TA.AperFunction,ComponentPad*%
%ADD18R,1.800000X1.800000*%
%TD*%
%TA.AperFunction,ComponentPad*%
%ADD19C,1.800000*%
%TD*%
%TA.AperFunction,ComponentPad*%
%ADD20C,1.440000*%
%TD*%
%TA.AperFunction,ComponentPad*%
%ADD21RoundRect,0.249999X0.850001X-0.850001X0.850001X0.850001X-0.850001X0.850001X-0.850001X-0.850001X0*%
%TD*%
%TA.AperFunction,ComponentPad*%
%ADD22R,2.500000X1.500000*%
%TD*%
%TA.AperFunction,ComponentPad*%
%ADD23O,2.500000X1.500000*%
%TD*%
%TA.AperFunction,ComponentPad*%
%ADD24R,1.400000X1.400000*%
%TD*%
%TA.AperFunction,ComponentPad*%
%ADD25C,1.400000*%
%TD*%
%TA.AperFunction,ComponentPad*%
%ADD26RoundRect,0.250000X0.550000X-0.550000X0.550000X0.550000X-0.550000X0.550000X-0.550000X-0.550000X0*%
%TD*%
%TA.AperFunction,Conductor*%
%ADD27C,1.000000*%
%TD*%
G04 APERTURE END LIST*
D10*
%TO.P,D5,1,K*%
%TO.N,Net-(D5-K)*%
X188840000Y-46500000D03*
D11*
%TO.P,D5,2,A*%
%TO.N,GND*%
X199000000Y-46500000D03*
%TD*%
D12*
%TO.P,F1,1*%
%TO.N,Net-(U2-Vin)*%
X157100000Y-46000000D03*
X163860000Y-46000000D03*
D13*
%TO.P,F1,2*%
%TO.N,Net-(D5-K)*%
X171140000Y-46000000D03*
X177900000Y-46000000D03*
%TD*%
D14*
%TO.P,C1,1*%
%TO.N,+5V*%
X192730000Y-104500000D03*
%TO.P,C1,2*%
%TO.N,GND*%
X197730000Y-104500000D03*
%TD*%
%TO.P,R1,1*%
%TO.N,Net-(R1-Pad1)*%
X144730000Y-57420000D03*
%TO.P,R1,2*%
%TO.N,GND*%
X144730000Y-67580000D03*
%TD*%
D15*
%TO.P,U3,1*%
%TO.N,Net-(R1-Pad1)*%
X173110000Y-103500000D03*
D14*
%TO.P,U3,2,-*%
%TO.N,Net-(J2-Pin_1)*%
X173110000Y-106040000D03*
%TO.P,U3,3,+*%
%TO.N,Net-(U3A-+)*%
X173110000Y-108580000D03*
%TO.P,U3,4,V-*%
%TO.N,GND*%
X173110000Y-111120000D03*
%TO.P,U3,5,+*%
X180730000Y-111120000D03*
%TO.P,U3,6,-*%
%TO.N,Net-(U3B--)*%
X180730000Y-108580000D03*
%TO.P,U3,7*%
X180730000Y-106040000D03*
%TO.P,U3,8,V+*%
%TO.N,+5V*%
X180730000Y-103500000D03*
%TD*%
D16*
%TO.P,Q1,1,E*%
%TO.N,GND*%
X165960000Y-71860000D03*
D17*
%TO.P,Q1,2,B*%
%TO.N,Net-(Q1-B)*%
X167230000Y-71860000D03*
%TO.P,Q1,3,C*%
%TO.N,Net-(D1-A)*%
X168500000Y-71860000D03*
%TD*%
D18*
%TO.P,D3,1,K*%
%TO.N,GND*%
X85455000Y-85000000D03*
D19*
%TO.P,D3,2,A*%
%TO.N,+5V*%
X82915000Y-85000000D03*
%TD*%
D14*
%TO.P,R4,1*%
%TO.N,Net-(D2-K)*%
X97150000Y-105000000D03*
%TO.P,R4,2*%
%TO.N,Net-(K1-Pad9)*%
X107310000Y-105000000D03*
%TD*%
D20*
%TO.P,RV1,1,1*%
%TO.N,+5V*%
X191150000Y-118000000D03*
%TO.P,RV1,2,2*%
%TO.N,Net-(U3A-+)*%
X193690000Y-120540000D03*
%TO.P,RV1,3,3*%
%TO.N,GND*%
X196230000Y-118000000D03*
%TD*%
D21*
%TO.P,J4,1,Pin_1*%
%TO.N,GND*%
X197230000Y-66040000D03*
D11*
%TO.P,J4,2,Pin_2*%
%TO.N,Net-(D5-K)*%
X197230000Y-63500000D03*
%TD*%
D14*
%TO.P,R3,1*%
%TO.N,GND*%
X150730000Y-127080000D03*
%TO.P,R3,2*%
%TO.N,Net-(J2-Pin_1)*%
X150730000Y-116920000D03*
%TD*%
%TO.P,R2,1*%
%TO.N,Net-(R1-Pad1)*%
X155230000Y-58500000D03*
%TO.P,R2,2*%
%TO.N,Net-(Q1-B)*%
X155230000Y-68660000D03*
%TD*%
%TO.P,R5,1*%
%TO.N,Net-(D4-K)*%
X87650000Y-109500000D03*
%TO.P,R5,2*%
%TO.N,Net-(K1-Pad11)*%
X97810000Y-109500000D03*
%TD*%
D22*
%TO.P,U2,1,Vin*%
%TO.N,Net-(U2-Vin)*%
X191547500Y-83067500D03*
D23*
%TO.P,U2,2,GND*%
%TO.N,GND*%
X191547500Y-85607500D03*
%TO.P,U2,3,Vout*%
%TO.N,+5V*%
X191547500Y-88147500D03*
%TD*%
D15*
%TO.P,D1,1,K*%
%TO.N,+5V*%
X131920000Y-86500000D03*
D14*
%TO.P,D1,2,A*%
%TO.N,Net-(D1-A)*%
X139540000Y-86500000D03*
%TD*%
D18*
%TO.P,D4,1,K*%
%TO.N,Net-(D4-K)*%
X83190000Y-100000000D03*
D19*
%TO.P,D4,2,A*%
%TO.N,+5V*%
X85730000Y-100000000D03*
%TD*%
D24*
%TO.P,K1,1*%
%TO.N,+5V*%
X136350000Y-108200000D03*
D25*
%TO.P,K1,4*%
%TO.N,Net-(J1-Pin_2)*%
X128730000Y-108200000D03*
%TO.P,K1,6*%
%TO.N,unconnected-(K1-Pad6)*%
X123650000Y-108200000D03*
%TO.P,K1,8*%
%TO.N,Net-(J1-Pin_1)*%
X118570000Y-108200000D03*
%TO.P,K1,9*%
%TO.N,Net-(K1-Pad9)*%
X118570000Y-115820000D03*
%TO.P,K1,11*%
%TO.N,Net-(K1-Pad11)*%
X123650000Y-115820000D03*
%TO.P,K1,13*%
%TO.N,GND*%
X128730000Y-115820000D03*
%TO.P,K1,16*%
%TO.N,Net-(D1-A)*%
X136350000Y-115820000D03*
%TD*%
D21*
%TO.P,J2,1,Pin_1*%
%TO.N,Net-(J2-Pin_1)*%
X150230000Y-97500000D03*
D11*
%TO.P,J2,2,Pin_2*%
%TO.N,+5V*%
X150230000Y-94960000D03*
%TD*%
D10*
%TO.P,J1,1,Pin_1*%
%TO.N,Net-(J1-Pin_1)*%
X122190000Y-93000000D03*
D11*
%TO.P,J1,2,Pin_2*%
%TO.N,Net-(J1-Pin_2)*%
X124730000Y-93000000D03*
%TD*%
D18*
%TO.P,D2,1,K*%
%TO.N,Net-(D2-K)*%
X83190000Y-72000000D03*
D19*
%TO.P,D2,2,A*%
%TO.N,+5V*%
X85730000Y-72000000D03*
%TD*%
D26*
%TO.P,C2,1*%
%TO.N,+5V*%
X94730000Y-90500000D03*
D14*
%TO.P,C2,2*%
%TO.N,GND*%
X94730000Y-88500000D03*
%TD*%
D27*
%TO.N,Net-(D5-K)*%
X184500000Y-46500000D02*
X184000000Y-46000000D01*
X188840000Y-46500000D02*
X184500000Y-46500000D01*
X197230000Y-59230000D02*
X184500000Y-46500000D01*
X197230000Y-63500000D02*
X197230000Y-59230000D01*
X184000000Y-46000000D02*
X179730000Y-46000000D01*
%TO.N,Net-(U3B--)*%
X180730000Y-106040000D02*
X180730000Y-108580000D01*
%TO.N,+5V*%
X110500000Y-86500000D02*
X131920000Y-86500000D01*
X94730000Y-90500000D02*
X106500000Y-90500000D01*
X106500000Y-90500000D02*
X110500000Y-86500000D01*
%TO.N,Net-(U2-Vin)*%
X163860000Y-46000000D02*
X157100000Y-46000000D01*
%TO.N,Net-(D5-K)*%
X177900000Y-46000000D02*
X171140000Y-46000000D01*
%TO.N,Net-(U2-Vin)*%
X163860000Y-48360000D02*
X163860000Y-46000000D01*
X191547500Y-76047500D02*
X163860000Y-48360000D01*
X191547500Y-83067500D02*
X191547500Y-76047500D01*
%TO.N,Net-(D5-K)*%
X179730000Y-46000000D02*
X177900000Y-46000000D01*
%TO.N,GND*%
X140730000Y-67580000D02*
X139150000Y-66000000D01*
X121390000Y-66000000D02*
X116890000Y-70500000D01*
X161730000Y-61500000D02*
X141730000Y-61500000D01*
X165960000Y-71860000D02*
X165960000Y-65730000D01*
X139150000Y-66000000D02*
X121390000Y-66000000D01*
X173110000Y-112380000D02*
X183730000Y-123000000D01*
X139990000Y-127080000D02*
X150730000Y-127080000D01*
X116230000Y-109500000D02*
X119730000Y-113000000D01*
X94730000Y-85500000D02*
X101230000Y-79000000D01*
X197730000Y-90540000D02*
X197730000Y-104500000D01*
X173110000Y-111120000D02*
X173110000Y-112380000D01*
X116890000Y-70500000D02*
X116890000Y-75840000D01*
X128730000Y-115820000D02*
X139990000Y-127080000D01*
X173110000Y-115620000D02*
X173110000Y-111120000D01*
X197230000Y-66040000D02*
X197230000Y-81175000D01*
X192797500Y-85607500D02*
X197730000Y-90540000D01*
X85455000Y-85000000D02*
X91230000Y-85000000D01*
X119730000Y-113000000D02*
X125910000Y-113000000D01*
X191547500Y-85607500D02*
X192797500Y-85607500D01*
X165960000Y-65730000D02*
X161730000Y-61500000D01*
X197230000Y-81175000D02*
X192797500Y-85607500D01*
X183730000Y-123000000D02*
X195230000Y-123000000D01*
X196230000Y-106000000D02*
X196230000Y-118000000D01*
X94730000Y-88500000D02*
X94730000Y-85500000D01*
X91230000Y-85000000D02*
X94730000Y-88500000D01*
X125910000Y-113000000D02*
X128730000Y-115820000D01*
X161650000Y-127080000D02*
X173110000Y-115620000D01*
X116890000Y-75840000D02*
X113730000Y-79000000D01*
X196230000Y-122000000D02*
X196230000Y-118000000D01*
X139150000Y-64080000D02*
X139150000Y-66000000D01*
X195230000Y-123000000D02*
X196230000Y-122000000D01*
X141730000Y-61500000D02*
X139150000Y-64080000D01*
X150730000Y-127080000D02*
X161650000Y-127080000D01*
X144730000Y-67580000D02*
X140730000Y-67580000D01*
X101230000Y-79000000D02*
X113730000Y-79000000D01*
X197730000Y-104500000D02*
X196230000Y-106000000D01*
%TO.N,+5V*%
X85730000Y-72000000D02*
X85730000Y-82185000D01*
X82915000Y-83815000D02*
X82915000Y-85000000D01*
X191730000Y-104500000D02*
X190730000Y-103500000D01*
X85730000Y-98040000D02*
X82915000Y-95225000D01*
X191547500Y-103317500D02*
X192730000Y-104500000D01*
X192730000Y-104500000D02*
X191150000Y-106080000D01*
X150230000Y-94960000D02*
X148674366Y-94960000D01*
X83730000Y-83000000D02*
X82915000Y-83815000D01*
X94730000Y-90500000D02*
X94730000Y-91000000D01*
X85730000Y-100000000D02*
X85730000Y-98040000D01*
X84915000Y-83000000D02*
X83730000Y-83000000D01*
X191150000Y-106080000D02*
X191150000Y-118000000D01*
X82915000Y-95225000D02*
X82915000Y-91815000D01*
X151531000Y-93659000D02*
X170889000Y-93659000D01*
X131730000Y-114500000D02*
X131730000Y-110000000D01*
X136230000Y-119000000D02*
X131730000Y-114500000D01*
X148674366Y-94960000D02*
X143730000Y-99904366D01*
X143730000Y-117500000D02*
X142230000Y-119000000D01*
X131730000Y-110000000D02*
X133530000Y-108200000D01*
X82915000Y-91815000D02*
X82915000Y-85000000D01*
X131920000Y-103770000D02*
X136350000Y-108200000D01*
X94730000Y-91000000D02*
X85730000Y-100000000D01*
X133530000Y-108200000D02*
X136350000Y-108200000D01*
X190730000Y-103500000D02*
X180730000Y-103500000D01*
X150230000Y-94960000D02*
X151531000Y-93659000D01*
X170889000Y-93659000D02*
X180730000Y-103500000D01*
X191547500Y-88147500D02*
X191547500Y-103317500D01*
X142230000Y-119000000D02*
X136230000Y-119000000D01*
X85730000Y-82185000D02*
X84915000Y-83000000D01*
X131920000Y-86500000D02*
X131920000Y-103770000D01*
X192730000Y-104500000D02*
X191730000Y-104500000D01*
X143730000Y-99904366D02*
X143730000Y-117500000D01*
%TO.N,Net-(D1-A)*%
X168500000Y-80230000D02*
X168500000Y-71860000D01*
X162230000Y-86500000D02*
X168500000Y-80230000D01*
X139540000Y-112630000D02*
X136350000Y-115820000D01*
X139540000Y-86500000D02*
X139540000Y-112630000D01*
X139540000Y-86500000D02*
X162230000Y-86500000D01*
%TO.N,Net-(D2-K)*%
X78955000Y-115225000D02*
X80230000Y-116500000D01*
X89730000Y-113500000D02*
X89730000Y-112420000D01*
X86730000Y-116500000D02*
X89730000Y-113500000D01*
X83190000Y-72000000D02*
X83190000Y-73500000D01*
X83190000Y-73500000D02*
X78955000Y-77735000D01*
X89730000Y-112420000D02*
X97150000Y-105000000D01*
X80230000Y-116500000D02*
X86730000Y-116500000D01*
X78955000Y-77735000D02*
X78955000Y-115225000D01*
%TO.N,Net-(D4-K)*%
X83190000Y-100000000D02*
X83190000Y-105040000D01*
X83190000Y-105040000D02*
X87650000Y-109500000D01*
%TO.N,Net-(J1-Pin_2)*%
X128730000Y-108200000D02*
X128730000Y-94500000D01*
X128730000Y-94500000D02*
X127230000Y-93000000D01*
X127230000Y-93000000D02*
X124730000Y-93000000D01*
%TO.N,Net-(J1-Pin_1)*%
X122190000Y-93000000D02*
X120230000Y-93000000D01*
X120230000Y-93000000D02*
X118570000Y-94660000D01*
X118570000Y-94660000D02*
X118570000Y-108200000D01*
%TO.N,Net-(J2-Pin_1)*%
X173110000Y-106040000D02*
X158770000Y-106040000D01*
X158770000Y-106040000D02*
X150230000Y-97500000D01*
X150230000Y-116420000D02*
X150730000Y-116920000D01*
X150230000Y-97500000D02*
X150230000Y-116420000D01*
%TO.N,Net-(K1-Pad11)*%
X119730000Y-122500000D02*
X123650000Y-118580000D01*
X97810000Y-109500000D02*
X97810000Y-111080000D01*
X97810000Y-111080000D02*
X109230000Y-122500000D01*
X123650000Y-118580000D02*
X123650000Y-115820000D01*
X109230000Y-122500000D02*
X119730000Y-122500000D01*
%TO.N,Net-(K1-Pad9)*%
X107750000Y-105000000D02*
X107310000Y-105000000D01*
X118570000Y-115820000D02*
X107750000Y-105000000D01*
%TO.N,Net-(Q1-B)*%
X164180000Y-76660000D02*
X167230000Y-73610000D01*
X167230000Y-73610000D02*
X167230000Y-71860000D01*
X155230000Y-72000000D02*
X159890000Y-76660000D01*
X155230000Y-68660000D02*
X155230000Y-72000000D01*
X159890000Y-76660000D02*
X164180000Y-76660000D01*
%TO.N,Net-(R1-Pad1)*%
X144730000Y-57420000D02*
X154150000Y-57420000D01*
X154150000Y-57420000D02*
X155230000Y-58500000D01*
%TO.N,Net-(U3A-+)*%
X185070000Y-120540000D02*
X173110000Y-108580000D01*
X193690000Y-120540000D02*
X185070000Y-120540000D01*
%TD*%
%TA.AperFunction,Conductor*%
%TO.N,GND*%
G36*
X203376981Y-39499027D02*
G01*
X203443862Y-39519241D01*
X203489198Y-39572405D01*
X203500000Y-39623023D01*
X203500000Y-133376980D01*
X203480315Y-133444019D01*
X203427511Y-133489774D01*
X203376984Y-133500976D01*
X77624334Y-134499013D01*
X77557141Y-134479861D01*
X77510968Y-134427422D01*
X77499352Y-134375663D01*
X77460821Y-126977682D01*
X149430000Y-126977682D01*
X149430000Y-127182317D01*
X149462009Y-127384417D01*
X149525244Y-127579031D01*
X149618141Y-127761350D01*
X149618147Y-127761359D01*
X149650523Y-127805921D01*
X149650524Y-127805922D01*
X150330000Y-127126446D01*
X150330000Y-127132661D01*
X150357259Y-127234394D01*
X150409920Y-127325606D01*
X150484394Y-127400080D01*
X150575606Y-127452741D01*
X150677339Y-127480000D01*
X150683553Y-127480000D01*
X150004076Y-128159474D01*
X150048650Y-128191859D01*
X150230968Y-128284755D01*
X150425582Y-128347990D01*
X150627683Y-128380000D01*
X150832317Y-128380000D01*
X151034417Y-128347990D01*
X151229031Y-128284755D01*
X151411349Y-128191859D01*
X151455921Y-128159474D01*
X150776447Y-127480000D01*
X150782661Y-127480000D01*
X150884394Y-127452741D01*
X150975606Y-127400080D01*
X151050080Y-127325606D01*
X151102741Y-127234394D01*
X151130000Y-127132661D01*
X151130000Y-127126447D01*
X151809474Y-127805921D01*
X151841859Y-127761349D01*
X151934755Y-127579031D01*
X151997990Y-127384417D01*
X152030000Y-127182317D01*
X152030000Y-126977682D01*
X151997990Y-126775582D01*
X151934755Y-126580968D01*
X151841859Y-126398650D01*
X151809474Y-126354077D01*
X151809474Y-126354076D01*
X151130000Y-127033551D01*
X151130000Y-127027339D01*
X151102741Y-126925606D01*
X151050080Y-126834394D01*
X150975606Y-126759920D01*
X150884394Y-126707259D01*
X150782661Y-126680000D01*
X150776446Y-126680000D01*
X151455922Y-126000524D01*
X151455921Y-126000523D01*
X151411359Y-125968147D01*
X151411350Y-125968141D01*
X151229031Y-125875244D01*
X151034417Y-125812009D01*
X150832317Y-125780000D01*
X150627683Y-125780000D01*
X150425582Y-125812009D01*
X150230968Y-125875244D01*
X150048644Y-125968143D01*
X150004077Y-126000523D01*
X150004077Y-126000524D01*
X150683554Y-126680000D01*
X150677339Y-126680000D01*
X150575606Y-126707259D01*
X150484394Y-126759920D01*
X150409920Y-126834394D01*
X150357259Y-126925606D01*
X150330000Y-127027339D01*
X150330000Y-127033553D01*
X149650524Y-126354077D01*
X149650523Y-126354077D01*
X149618143Y-126398644D01*
X149525244Y-126580968D01*
X149462009Y-126775582D01*
X149430000Y-126977682D01*
X77460821Y-126977682D01*
X77203835Y-77636456D01*
X77954500Y-77636456D01*
X77954500Y-115323544D01*
X77992947Y-115516829D01*
X77992950Y-115516839D01*
X78002081Y-115538883D01*
X78068364Y-115698907D01*
X78068371Y-115698920D01*
X78177859Y-115862780D01*
X78177860Y-115862781D01*
X78177861Y-115862782D01*
X78317218Y-116002139D01*
X78317219Y-116002139D01*
X78324286Y-116009206D01*
X78324285Y-116009206D01*
X78324288Y-116009208D01*
X79452860Y-117137781D01*
X79452861Y-117137782D01*
X79539613Y-117224534D01*
X79592219Y-117277140D01*
X79756079Y-117386628D01*
X79756092Y-117386635D01*
X79884833Y-117439961D01*
X79927744Y-117457735D01*
X79938164Y-117462051D01*
X80034812Y-117481275D01*
X80083135Y-117490887D01*
X80131458Y-117500500D01*
X80131459Y-117500500D01*
X86828542Y-117500500D01*
X86859566Y-117494328D01*
X86925188Y-117481275D01*
X87021836Y-117462051D01*
X87075165Y-117439961D01*
X87203914Y-117386632D01*
X87367782Y-117277139D01*
X87507139Y-117137782D01*
X87507139Y-117137780D01*
X87517347Y-117127573D01*
X87517348Y-117127570D01*
X90507140Y-114137781D01*
X90616632Y-113973914D01*
X90692052Y-113791835D01*
X90730500Y-113598540D01*
X90730500Y-113401459D01*
X90730500Y-112885782D01*
X90750185Y-112818743D01*
X90766819Y-112798101D01*
X92497581Y-111067339D01*
X94167272Y-109397648D01*
X96509500Y-109397648D01*
X96509500Y-109602351D01*
X96541522Y-109804534D01*
X96604781Y-109999223D01*
X96697713Y-110181610D01*
X96785819Y-110302877D01*
X96809298Y-110368681D01*
X96809500Y-110375761D01*
X96809500Y-111178541D01*
X96809500Y-111178543D01*
X96809499Y-111178543D01*
X96847947Y-111371829D01*
X96847950Y-111371839D01*
X96923364Y-111553907D01*
X96923371Y-111553920D01*
X97032860Y-111717781D01*
X97032863Y-111717785D01*
X97176537Y-111861459D01*
X97176559Y-111861479D01*
X108449735Y-123134655D01*
X108449764Y-123134686D01*
X108592214Y-123277136D01*
X108592218Y-123277139D01*
X108756079Y-123386628D01*
X108756092Y-123386635D01*
X108884833Y-123439961D01*
X108927744Y-123457735D01*
X108938164Y-123462051D01*
X109034812Y-123481275D01*
X109083135Y-123490887D01*
X109131458Y-123500500D01*
X109131459Y-123500500D01*
X119828542Y-123500500D01*
X119859566Y-123494328D01*
X119925188Y-123481275D01*
X120021836Y-123462051D01*
X120075165Y-123439961D01*
X120203914Y-123386632D01*
X120367782Y-123277139D01*
X120507139Y-123137782D01*
X120507140Y-123137779D01*
X120514206Y-123130714D01*
X120514209Y-123130710D01*
X124287778Y-119357141D01*
X124287782Y-119357139D01*
X124427139Y-119217782D01*
X124536632Y-119053914D01*
X124599780Y-118901460D01*
X124612051Y-118871836D01*
X124644607Y-118708165D01*
X124650500Y-118678541D01*
X124650500Y-116827882D01*
X128075669Y-116827882D01*
X128075670Y-116827883D01*
X128101059Y-116846329D01*
X128269362Y-116932085D01*
X128448997Y-116990451D01*
X128635553Y-117020000D01*
X128824447Y-117020000D01*
X129011002Y-116990451D01*
X129190637Y-116932085D01*
X129358937Y-116846331D01*
X129384328Y-116827883D01*
X129384328Y-116827882D01*
X128730001Y-116173554D01*
X128730000Y-116173554D01*
X128075669Y-116827882D01*
X124650500Y-116827882D01*
X124650500Y-116525632D01*
X124670185Y-116458593D01*
X124674177Y-116452753D01*
X124676760Y-116449199D01*
X124762547Y-116280832D01*
X124820940Y-116101118D01*
X124831427Y-116034905D01*
X124850500Y-115914486D01*
X124850500Y-115725552D01*
X127530000Y-115725552D01*
X127530000Y-115914447D01*
X127559548Y-116101002D01*
X127617914Y-116280637D01*
X127703666Y-116448933D01*
X127722116Y-116474328D01*
X128376446Y-115820000D01*
X128376446Y-115819999D01*
X128330369Y-115773922D01*
X128380000Y-115773922D01*
X128380000Y-115866078D01*
X128403852Y-115955095D01*
X128449930Y-116034905D01*
X128515095Y-116100070D01*
X128594905Y-116146148D01*
X128683922Y-116170000D01*
X128776078Y-116170000D01*
X128865095Y-116146148D01*
X128944905Y-116100070D01*
X129010070Y-116034905D01*
X129056148Y-115955095D01*
X129080000Y-115866078D01*
X129080000Y-115819999D01*
X129083554Y-115819999D01*
X129083554Y-115820000D01*
X129737882Y-116474328D01*
X129737883Y-116474328D01*
X129756331Y-116448937D01*
X129842085Y-116280637D01*
X129900451Y-116101002D01*
X129930000Y-115914447D01*
X129930000Y-115725552D01*
X129900451Y-115538997D01*
X129842085Y-115359362D01*
X129756329Y-115191059D01*
X129737883Y-115165670D01*
X129737882Y-115165669D01*
X129083554Y-115819999D01*
X129080000Y-115819999D01*
X129080000Y-115773922D01*
X129056148Y-115684905D01*
X129010070Y-115605095D01*
X128944905Y-115539930D01*
X128865095Y-115493852D01*
X128776078Y-115470000D01*
X128683922Y-115470000D01*
X128594905Y-115493852D01*
X128515095Y-115539930D01*
X128449930Y-115605095D01*
X128403852Y-115684905D01*
X128380000Y-115773922D01*
X128330369Y-115773922D01*
X127722116Y-115165669D01*
X127722116Y-115165670D01*
X127703669Y-115191060D01*
X127617914Y-115359362D01*
X127559548Y-115538997D01*
X127530000Y-115725552D01*
X124850500Y-115725552D01*
X124850500Y-115725513D01*
X124820940Y-115538881D01*
X124762545Y-115359163D01*
X124717290Y-115270347D01*
X124676760Y-115190801D01*
X124565690Y-115037927D01*
X124432073Y-114904310D01*
X124305179Y-114812116D01*
X128075669Y-114812116D01*
X128730000Y-115466446D01*
X128730001Y-115466446D01*
X129384328Y-114812116D01*
X129358933Y-114793666D01*
X129190637Y-114707914D01*
X129011002Y-114649548D01*
X128824447Y-114620000D01*
X128635553Y-114620000D01*
X128448997Y-114649548D01*
X128269362Y-114707914D01*
X128101060Y-114793669D01*
X128075670Y-114812116D01*
X128075669Y-114812116D01*
X124305179Y-114812116D01*
X124279199Y-114793240D01*
X124264156Y-114785575D01*
X124110836Y-114707454D01*
X123931118Y-114649059D01*
X123744486Y-114619500D01*
X123744481Y-114619500D01*
X123555519Y-114619500D01*
X123555514Y-114619500D01*
X123368881Y-114649059D01*
X123189163Y-114707454D01*
X123020800Y-114793240D01*
X122946947Y-114846898D01*
X122867927Y-114904310D01*
X122867925Y-114904312D01*
X122867924Y-114904312D01*
X122734312Y-115037924D01*
X122734312Y-115037925D01*
X122734310Y-115037927D01*
X122686610Y-115103579D01*
X122623240Y-115190800D01*
X122537454Y-115359163D01*
X122479059Y-115538881D01*
X122449500Y-115725513D01*
X122449500Y-115914486D01*
X122479059Y-116101118D01*
X122537454Y-116280836D01*
X122623239Y-116449198D01*
X122623240Y-116449199D01*
X122625814Y-116452742D01*
X122649297Y-116518546D01*
X122649500Y-116525632D01*
X122649500Y-118114218D01*
X122629815Y-118181257D01*
X122613181Y-118201899D01*
X119351899Y-121463181D01*
X119290576Y-121496666D01*
X119264218Y-121499500D01*
X109695782Y-121499500D01*
X109628743Y-121479815D01*
X109608101Y-121463181D01*
X98846819Y-110701899D01*
X98832115Y-110674971D01*
X98815523Y-110649153D01*
X98814631Y-110642952D01*
X98813334Y-110640576D01*
X98810500Y-110614218D01*
X98810500Y-110375761D01*
X98830185Y-110308722D01*
X98834165Y-110302899D01*
X98922287Y-110181610D01*
X99015220Y-109999219D01*
X99078477Y-109804534D01*
X99110500Y-109602352D01*
X99110500Y-109397648D01*
X99083434Y-109226760D01*
X99078477Y-109195465D01*
X99040706Y-109079219D01*
X99015220Y-109000781D01*
X99015218Y-109000778D01*
X99015218Y-109000776D01*
X98927794Y-108829199D01*
X98922287Y-108818390D01*
X98914556Y-108807749D01*
X98801971Y-108652786D01*
X98657213Y-108508028D01*
X98491613Y-108387715D01*
X98491612Y-108387714D01*
X98491610Y-108387713D01*
X98434653Y-108358691D01*
X98309223Y-108294781D01*
X98114534Y-108231522D01*
X97926690Y-108201771D01*
X97912352Y-108199500D01*
X97707648Y-108199500D01*
X97693310Y-108201771D01*
X97505465Y-108231522D01*
X97310776Y-108294781D01*
X97128386Y-108387715D01*
X96962786Y-108508028D01*
X96818028Y-108652786D01*
X96697715Y-108818386D01*
X96604781Y-109000776D01*
X96541522Y-109195465D01*
X96509500Y-109397648D01*
X94167272Y-109397648D01*
X97238204Y-106326715D01*
X97299525Y-106293232D01*
X97306475Y-106291926D01*
X97454534Y-106268477D01*
X97649219Y-106205220D01*
X97831610Y-106112287D01*
X97924590Y-106044732D01*
X97997213Y-105991971D01*
X97997215Y-105991968D01*
X97997219Y-105991966D01*
X98141966Y-105847219D01*
X98141968Y-105847215D01*
X98141971Y-105847213D01*
X98199529Y-105767990D01*
X98262287Y-105681610D01*
X98355220Y-105499219D01*
X98418477Y-105304534D01*
X98450500Y-105102352D01*
X98450500Y-104897648D01*
X106009500Y-104897648D01*
X106009500Y-105102351D01*
X106041522Y-105304534D01*
X106104781Y-105499223D01*
X106197715Y-105681613D01*
X106318028Y-105847213D01*
X106462786Y-105991971D01*
X106617749Y-106104556D01*
X106628390Y-106112287D01*
X106744607Y-106171503D01*
X106810776Y-106205218D01*
X106810778Y-106205218D01*
X106810781Y-106205220D01*
X106915137Y-106239127D01*
X107005465Y-106268477D01*
X107106557Y-106284488D01*
X107207648Y-106300500D01*
X107207649Y-106300500D01*
X107412351Y-106300500D01*
X107412352Y-106300500D01*
X107542654Y-106279861D01*
X107611947Y-106288815D01*
X107649733Y-106314653D01*
X117363581Y-116028502D01*
X117397066Y-116089825D01*
X117398372Y-116096778D01*
X117399058Y-116101112D01*
X117399059Y-116101114D01*
X117399060Y-116101118D01*
X117457453Y-116280832D01*
X117543240Y-116449199D01*
X117654310Y-116602073D01*
X117787927Y-116735690D01*
X117940801Y-116846760D01*
X118020347Y-116887290D01*
X118109163Y-116932545D01*
X118109165Y-116932545D01*
X118109168Y-116932547D01*
X118196100Y-116960793D01*
X118288881Y-116990940D01*
X118475514Y-117020500D01*
X118475519Y-117020500D01*
X118664486Y-117020500D01*
X118851118Y-116990940D01*
X118852623Y-116990451D01*
X119030832Y-116932547D01*
X119199199Y-116846760D01*
X119352073Y-116735690D01*
X119485690Y-116602073D01*
X119596760Y-116449199D01*
X119682547Y-116280832D01*
X119740940Y-116101118D01*
X119751427Y-116034905D01*
X119770500Y-115914486D01*
X119770500Y-115725513D01*
X119740940Y-115538881D01*
X119682545Y-115359163D01*
X119637290Y-115270347D01*
X119596760Y-115190801D01*
X119485690Y-115037927D01*
X119352073Y-114904310D01*
X119199199Y-114793240D01*
X119030832Y-114707453D01*
X118851118Y-114649060D01*
X118851116Y-114649059D01*
X118851114Y-114649059D01*
X118851112Y-114649058D01*
X118846778Y-114648372D01*
X118783645Y-114618439D01*
X118778502Y-114613581D01*
X115575010Y-111410089D01*
X112270434Y-108105513D01*
X117369500Y-108105513D01*
X117369500Y-108294486D01*
X117399059Y-108481118D01*
X117457454Y-108660836D01*
X117543240Y-108829199D01*
X117654310Y-108982073D01*
X117787927Y-109115690D01*
X117940801Y-109226760D01*
X117986787Y-109250191D01*
X118109163Y-109312545D01*
X118109165Y-109312545D01*
X118109168Y-109312547D01*
X118205333Y-109343793D01*
X118288881Y-109370940D01*
X118475514Y-109400500D01*
X118475519Y-109400500D01*
X118664486Y-109400500D01*
X118851118Y-109370940D01*
X118877961Y-109362218D01*
X119030832Y-109312547D01*
X119199199Y-109226760D01*
X119352073Y-109115690D01*
X119485690Y-108982073D01*
X119596760Y-108829199D01*
X119682547Y-108660832D01*
X119740940Y-108481118D01*
X119750064Y-108423513D01*
X119770500Y-108294486D01*
X119770500Y-108105513D01*
X122449500Y-108105513D01*
X122449500Y-108294486D01*
X122479059Y-108481118D01*
X122537454Y-108660836D01*
X122623240Y-108829199D01*
X122734310Y-108982073D01*
X122867927Y-109115690D01*
X123020801Y-109226760D01*
X123066787Y-109250191D01*
X123189163Y-109312545D01*
X123189165Y-109312545D01*
X123189168Y-109312547D01*
X123285333Y-109343793D01*
X123368881Y-109370940D01*
X123555514Y-109400500D01*
X123555519Y-109400500D01*
X123744486Y-109400500D01*
X123931118Y-109370940D01*
X123957961Y-109362218D01*
X124110832Y-109312547D01*
X124279199Y-109226760D01*
X124432073Y-109115690D01*
X124565690Y-108982073D01*
X124676760Y-108829199D01*
X124762547Y-108660832D01*
X124820940Y-108481118D01*
X124830064Y-108423513D01*
X124850500Y-108294486D01*
X124850500Y-108105513D01*
X124820940Y-107918881D01*
X124774879Y-107777122D01*
X124762547Y-107739168D01*
X124762545Y-107739165D01*
X124762545Y-107739163D01*
X124717290Y-107650347D01*
X124676760Y-107570801D01*
X124565690Y-107417927D01*
X124432073Y-107284310D01*
X124279199Y-107173240D01*
X124110836Y-107087454D01*
X123931118Y-107029059D01*
X123744486Y-106999500D01*
X123744481Y-106999500D01*
X123555519Y-106999500D01*
X123555514Y-106999500D01*
X123368881Y-107029059D01*
X123189163Y-107087454D01*
X123020800Y-107173240D01*
X122933579Y-107236610D01*
X122867927Y-107284310D01*
X122867925Y-107284312D01*
X122867924Y-107284312D01*
X122734312Y-107417924D01*
X122734312Y-107417925D01*
X122734310Y-107417927D01*
X122709461Y-107452129D01*
X122623240Y-107570800D01*
X122537454Y-107739163D01*
X122479059Y-107918881D01*
X122449500Y-108105513D01*
X119770500Y-108105513D01*
X119740940Y-107918881D01*
X119694879Y-107777122D01*
X119682547Y-107739168D01*
X119682545Y-107739165D01*
X119682545Y-107739163D01*
X119635565Y-107646962D01*
X119596760Y-107570801D01*
X119596758Y-107570798D01*
X119596757Y-107570796D01*
X119594179Y-107567247D01*
X119570702Y-107501439D01*
X119570500Y-107494366D01*
X119570500Y-95125781D01*
X119590185Y-95058742D01*
X119606814Y-95038104D01*
X120475779Y-94169139D01*
X120537100Y-94135656D01*
X120606791Y-94140640D01*
X120662725Y-94182512D01*
X120668989Y-94191713D01*
X120747288Y-94318656D01*
X120871344Y-94442712D01*
X121020665Y-94534814D01*
X121187202Y-94589999D01*
X121289990Y-94600500D01*
X121289995Y-94600500D01*
X121746425Y-94600500D01*
X121813464Y-94620185D01*
X121859219Y-94672989D01*
X121869163Y-94742147D01*
X121840138Y-94805703D01*
X121815316Y-94827602D01*
X121679711Y-94918210D01*
X121679707Y-94918213D01*
X121568213Y-95029707D01*
X121568210Y-95029711D01*
X121480609Y-95160814D01*
X121480602Y-95160827D01*
X121420264Y-95306498D01*
X121420261Y-95306510D01*
X121389500Y-95461153D01*
X121389500Y-95618846D01*
X121420261Y-95773489D01*
X121420264Y-95773501D01*
X121480602Y-95919172D01*
X121480609Y-95919185D01*
X121568210Y-96050288D01*
X121568213Y-96050292D01*
X121679707Y-96161786D01*
X121679711Y-96161789D01*
X121810814Y-96249390D01*
X121810827Y-96249397D01*
X121956498Y-96309735D01*
X121956503Y-96309737D01*
X122061725Y-96330667D01*
X122111153Y-96340499D01*
X122111156Y-96340500D01*
X122111158Y-96340500D01*
X122268844Y-96340500D01*
X122268845Y-96340499D01*
X122423497Y-96309737D01*
X122569179Y-96249394D01*
X122700289Y-96161789D01*
X122811789Y-96050289D01*
X122899394Y-95919179D01*
X122959737Y-95773497D01*
X122990500Y-95618842D01*
X122990500Y-95461158D01*
X122990500Y-95461155D01*
X122990499Y-95461153D01*
X122966238Y-95339185D01*
X122959737Y-95306503D01*
X122946057Y-95273476D01*
X122899397Y-95160827D01*
X122899390Y-95160814D01*
X122811789Y-95029711D01*
X122811786Y-95029707D01*
X122700292Y-94918213D01*
X122700288Y-94918210D01*
X122564684Y-94827602D01*
X122519879Y-94773990D01*
X122511172Y-94704665D01*
X122541326Y-94641637D01*
X122600770Y-94604918D01*
X122633575Y-94600500D01*
X123090005Y-94600500D01*
X123090010Y-94600500D01*
X123192798Y-94589999D01*
X123359335Y-94534814D01*
X123508656Y-94442712D01*
X123632712Y-94318656D01*
X123632715Y-94318650D01*
X123637495Y-94313871D01*
X123698818Y-94280386D01*
X123768510Y-94285370D01*
X123798058Y-94301231D01*
X123891155Y-94368870D01*
X123955111Y-94401457D01*
X124115616Y-94483239D01*
X124115618Y-94483239D01*
X124115621Y-94483241D01*
X124355215Y-94561090D01*
X124386866Y-94566103D01*
X124388469Y-94566357D01*
X124451603Y-94596286D01*
X124488535Y-94655597D01*
X124487537Y-94725460D01*
X124448927Y-94783693D01*
X124416523Y-94803391D01*
X124350827Y-94830602D01*
X124350814Y-94830609D01*
X124219711Y-94918210D01*
X124219707Y-94918213D01*
X124108213Y-95029707D01*
X124108210Y-95029711D01*
X124020609Y-95160814D01*
X124020602Y-95160827D01*
X123960264Y-95306498D01*
X123960261Y-95306510D01*
X123929500Y-95461153D01*
X123929500Y-95618846D01*
X123960261Y-95773489D01*
X123960264Y-95773501D01*
X124020602Y-95919172D01*
X124020609Y-95919185D01*
X124108210Y-96050288D01*
X124108213Y-96050292D01*
X124219707Y-96161786D01*
X124219711Y-96161789D01*
X124350814Y-96249390D01*
X124350827Y-96249397D01*
X124496498Y-96309735D01*
X124496503Y-96309737D01*
X124601725Y-96330667D01*
X124651153Y-96340499D01*
X124651156Y-96340500D01*
X124651158Y-96340500D01*
X124808844Y-96340500D01*
X124808845Y-96340499D01*
X124963497Y-96309737D01*
X125109179Y-96249394D01*
X125240289Y-96161789D01*
X125351789Y-96050289D01*
X125439394Y-95919179D01*
X125499737Y-95773497D01*
X125530500Y-95618842D01*
X125530500Y-95461158D01*
X125530500Y-95461155D01*
X125530499Y-95461153D01*
X125506238Y-95339185D01*
X125499737Y-95306503D01*
X125486057Y-95273476D01*
X125439397Y-95160827D01*
X125439390Y-95160814D01*
X125351789Y-95029711D01*
X125351786Y-95029707D01*
X125240292Y-94918213D01*
X125240288Y-94918210D01*
X125109185Y-94830609D01*
X125109173Y-94830602D01*
X125043476Y-94803391D01*
X124989072Y-94759551D01*
X124967007Y-94693257D01*
X124984286Y-94625557D01*
X125035423Y-94577947D01*
X125071531Y-94566357D01*
X125104785Y-94561090D01*
X125104788Y-94561089D01*
X125344379Y-94483241D01*
X125568845Y-94368870D01*
X125772656Y-94220793D01*
X125950793Y-94042656D01*
X125950793Y-94042655D01*
X125954238Y-94039211D01*
X125955312Y-94040285D01*
X126008180Y-94005775D01*
X126043962Y-94000500D01*
X126764218Y-94000500D01*
X126831257Y-94020185D01*
X126851899Y-94036819D01*
X127693181Y-94878101D01*
X127726666Y-94939424D01*
X127729500Y-94965782D01*
X127729500Y-107494366D01*
X127709815Y-107561405D01*
X127705821Y-107567247D01*
X127703242Y-107570796D01*
X127617454Y-107739163D01*
X127559059Y-107918881D01*
X127529500Y-108105513D01*
X127529500Y-108294486D01*
X127559059Y-108481118D01*
X127617454Y-108660836D01*
X127703240Y-108829199D01*
X127814310Y-108982073D01*
X127947927Y-109115690D01*
X128100801Y-109226760D01*
X128146787Y-109250191D01*
X128269163Y-109312545D01*
X128269165Y-109312545D01*
X128269168Y-109312547D01*
X128365333Y-109343793D01*
X128448881Y-109370940D01*
X128635514Y-109400500D01*
X128635519Y-109400500D01*
X128824486Y-109400500D01*
X129011118Y-109370940D01*
X129037961Y-109362218D01*
X129190832Y-109312547D01*
X129359199Y-109226760D01*
X129512073Y-109115690D01*
X129645690Y-108982073D01*
X129756760Y-108829199D01*
X129842547Y-108660832D01*
X129900940Y-108481118D01*
X129910064Y-108423513D01*
X129930500Y-108294486D01*
X129930500Y-108105513D01*
X129900940Y-107918881D01*
X129854879Y-107777122D01*
X129842547Y-107739168D01*
X129842545Y-107739165D01*
X129842545Y-107739163D01*
X129795565Y-107646962D01*
X129756760Y-107570801D01*
X129756758Y-107570798D01*
X129756757Y-107570796D01*
X129754179Y-107567247D01*
X129730702Y-107501439D01*
X129730500Y-107494366D01*
X129730500Y-94401457D01*
X129727729Y-94387530D01*
X129719393Y-94345621D01*
X129692051Y-94208164D01*
X129660811Y-94132745D01*
X129622513Y-94040285D01*
X129616635Y-94026093D01*
X129616634Y-94026092D01*
X129616632Y-94026086D01*
X129614048Y-94022219D01*
X129507140Y-93862219D01*
X129507139Y-93862218D01*
X129367782Y-93722861D01*
X129367781Y-93722860D01*
X128014208Y-92369288D01*
X128014206Y-92369285D01*
X128014206Y-92369286D01*
X128007139Y-92362219D01*
X128007139Y-92362218D01*
X127867782Y-92222861D01*
X127867781Y-92222860D01*
X127867780Y-92222859D01*
X127703920Y-92113371D01*
X127703911Y-92113366D01*
X127631315Y-92083296D01*
X127575165Y-92060038D01*
X127521836Y-92037949D01*
X127521832Y-92037948D01*
X127521828Y-92037946D01*
X127425188Y-92018724D01*
X127328544Y-91999500D01*
X127328541Y-91999500D01*
X126043962Y-91999500D01*
X125976923Y-91979815D01*
X125954650Y-91960376D01*
X125954238Y-91960789D01*
X125772654Y-91779205D01*
X125772649Y-91779201D01*
X125568848Y-91631132D01*
X125568847Y-91631131D01*
X125568845Y-91631130D01*
X125498747Y-91595413D01*
X125344383Y-91516760D01*
X125104785Y-91438910D01*
X125086980Y-91436090D01*
X124855962Y-91399500D01*
X124604038Y-91399500D01*
X124537738Y-91410001D01*
X124355214Y-91438910D01*
X124115616Y-91516760D01*
X123891158Y-91631128D01*
X123891155Y-91631129D01*
X123891155Y-91631130D01*
X123798060Y-91698766D01*
X123732255Y-91722245D01*
X123664201Y-91706419D01*
X123637496Y-91686128D01*
X123508657Y-91557289D01*
X123508656Y-91557288D01*
X123386950Y-91482219D01*
X123359337Y-91465187D01*
X123359332Y-91465185D01*
X123349874Y-91462051D01*
X123192798Y-91410001D01*
X123192796Y-91410000D01*
X123090017Y-91399500D01*
X123090010Y-91399500D01*
X121289990Y-91399500D01*
X121289982Y-91399500D01*
X121187203Y-91410000D01*
X121187202Y-91410001D01*
X121108471Y-91436090D01*
X121020667Y-91465185D01*
X121020662Y-91465187D01*
X120871342Y-91557289D01*
X120747289Y-91681342D01*
X120655187Y-91830662D01*
X120655186Y-91830665D01*
X120627403Y-91914505D01*
X120613534Y-91934536D01*
X120603412Y-91956703D01*
X120593999Y-91962751D01*
X120587632Y-91971949D01*
X120565132Y-91981303D01*
X120544634Y-91994477D01*
X120527533Y-91996935D01*
X120523117Y-91998772D01*
X120509699Y-91999500D01*
X120334675Y-91999500D01*
X120334655Y-91999499D01*
X120328541Y-91999499D01*
X120131460Y-91999499D01*
X120131457Y-91999499D01*
X119938172Y-92037946D01*
X119938164Y-92037948D01*
X119756088Y-92113366D01*
X119756079Y-92113371D01*
X119592219Y-92222859D01*
X119592215Y-92222862D01*
X118338320Y-93476759D01*
X117932220Y-93882859D01*
X117932218Y-93882861D01*
X117895365Y-93919714D01*
X117792859Y-94022219D01*
X117683371Y-94186080D01*
X117683364Y-94186093D01*
X117653515Y-94258157D01*
X117653512Y-94258166D01*
X117651531Y-94262949D01*
X117607949Y-94368164D01*
X117592096Y-94447861D01*
X117590731Y-94454721D01*
X117590729Y-94454729D01*
X117569500Y-94561457D01*
X117569500Y-107494366D01*
X117549815Y-107561405D01*
X117545821Y-107567247D01*
X117543242Y-107570796D01*
X117457454Y-107739163D01*
X117399059Y-107918881D01*
X117369500Y-108105513D01*
X112270434Y-108105513D01*
X108534208Y-104369288D01*
X108534206Y-104369285D01*
X108534206Y-104369286D01*
X108527139Y-104362219D01*
X108527139Y-104362218D01*
X108387782Y-104222861D01*
X108387781Y-104222860D01*
X108387780Y-104222859D01*
X108338368Y-104189844D01*
X108306937Y-104159623D01*
X108301967Y-104152782D01*
X108249185Y-104100000D01*
X108157219Y-104008034D01*
X108157215Y-104008031D01*
X108157211Y-104008027D01*
X107991613Y-103887715D01*
X107991612Y-103887714D01*
X107991610Y-103887713D01*
X107934653Y-103858691D01*
X107809223Y-103794781D01*
X107614534Y-103731522D01*
X107439995Y-103703878D01*
X107412352Y-103699500D01*
X107207648Y-103699500D01*
X107183329Y-103703351D01*
X107005465Y-103731522D01*
X106810776Y-103794781D01*
X106628386Y-103887715D01*
X106462786Y-104008028D01*
X106318028Y-104152786D01*
X106197715Y-104318386D01*
X106104781Y-104500776D01*
X106041522Y-104695465D01*
X106009500Y-104897648D01*
X98450500Y-104897648D01*
X98433202Y-104788432D01*
X98418477Y-104695465D01*
X98370283Y-104547141D01*
X98355220Y-104500781D01*
X98355218Y-104500778D01*
X98355218Y-104500776D01*
X98307836Y-104407785D01*
X98262287Y-104318390D01*
X98208180Y-104243917D01*
X98141971Y-104152786D01*
X97997213Y-104008028D01*
X97831613Y-103887715D01*
X97831612Y-103887714D01*
X97831610Y-103887713D01*
X97774653Y-103858691D01*
X97649223Y-103794781D01*
X97454534Y-103731522D01*
X97279995Y-103703878D01*
X97252352Y-103699500D01*
X97047648Y-103699500D01*
X97023329Y-103703351D01*
X96845465Y-103731522D01*
X96650776Y-103794781D01*
X96468386Y-103887715D01*
X96302786Y-104008028D01*
X96158028Y-104152786D01*
X96037715Y-104318386D01*
X95944781Y-104500778D01*
X95881522Y-104695468D01*
X95858073Y-104843514D01*
X95828143Y-104906649D01*
X95823281Y-104911796D01*
X90774314Y-109960765D01*
X89092220Y-111642859D01*
X89092218Y-111642861D01*
X89022538Y-111712540D01*
X88952859Y-111782219D01*
X88843371Y-111946079D01*
X88843364Y-111946092D01*
X88767950Y-112128160D01*
X88767947Y-112128170D01*
X88729500Y-112321456D01*
X88729500Y-113034217D01*
X88709815Y-113101256D01*
X88693181Y-113121898D01*
X86351899Y-115463181D01*
X86290576Y-115496666D01*
X86264218Y-115499500D01*
X80695783Y-115499500D01*
X80628744Y-115479815D01*
X80608102Y-115463181D01*
X79991819Y-114846898D01*
X79958334Y-114785575D01*
X79955500Y-114759217D01*
X79955500Y-78200782D01*
X79975185Y-78133743D01*
X79991819Y-78113101D01*
X83967136Y-74137785D01*
X83967136Y-74137784D01*
X83967139Y-74137782D01*
X84004129Y-74082421D01*
X84076631Y-73973916D01*
X84076636Y-73973906D01*
X84152050Y-73791837D01*
X84152051Y-73791835D01*
X84168620Y-73708541D01*
X84190500Y-73598541D01*
X84190500Y-73482790D01*
X84210185Y-73415751D01*
X84262989Y-73369996D01*
X84271146Y-73366616D01*
X84332331Y-73343796D01*
X84447546Y-73257546D01*
X84471525Y-73225513D01*
X84506234Y-73179150D01*
X84562168Y-73137279D01*
X84631859Y-73132295D01*
X84693182Y-73165781D01*
X84726666Y-73227104D01*
X84729500Y-73253461D01*
X84729500Y-81719218D01*
X84720855Y-81748658D01*
X84714332Y-81778645D01*
X84710577Y-81783660D01*
X84709815Y-81786257D01*
X84693181Y-81806899D01*
X84536899Y-81963181D01*
X84475576Y-81996666D01*
X84449218Y-81999500D01*
X83631455Y-81999500D01*
X83534812Y-82018724D01*
X83438167Y-82037947D01*
X83438161Y-82037949D01*
X83384834Y-82060037D01*
X83384834Y-82060038D01*
X83348317Y-82075164D01*
X83256089Y-82113366D01*
X83256079Y-82113371D01*
X83092219Y-82222859D01*
X83045463Y-82269616D01*
X82952861Y-82362218D01*
X82952858Y-82362221D01*
X82277221Y-83037858D01*
X82277218Y-83037861D01*
X82207538Y-83107540D01*
X82137859Y-83177219D01*
X82028371Y-83341079D01*
X82028364Y-83341092D01*
X81952950Y-83523160D01*
X81952947Y-83523170D01*
X81914500Y-83716456D01*
X81914500Y-83968531D01*
X81894815Y-84035570D01*
X81878181Y-84056212D01*
X81846756Y-84087636D01*
X81846752Y-84087641D01*
X81717187Y-84265974D01*
X81617104Y-84462393D01*
X81617103Y-84462396D01*
X81548985Y-84672047D01*
X81548985Y-84672049D01*
X81514500Y-84889778D01*
X81514500Y-85110222D01*
X81531742Y-85219086D01*
X81548985Y-85327952D01*
X81617103Y-85537603D01*
X81617104Y-85537606D01*
X81664520Y-85630663D01*
X81711499Y-85722863D01*
X81717187Y-85734025D01*
X81846752Y-85912358D01*
X81846756Y-85912363D01*
X81878181Y-85943788D01*
X81911666Y-86005111D01*
X81914500Y-86031469D01*
X81914500Y-91716459D01*
X81914500Y-95323541D01*
X81914500Y-95323543D01*
X81914499Y-95323543D01*
X81952947Y-95516829D01*
X81952950Y-95516839D01*
X82028364Y-95698907D01*
X82028371Y-95698920D01*
X82137860Y-95862781D01*
X82137863Y-95862785D01*
X82281537Y-96006459D01*
X82281559Y-96006479D01*
X84693181Y-98418101D01*
X84726666Y-98479424D01*
X84729500Y-98505782D01*
X84729500Y-98746538D01*
X84709815Y-98813577D01*
X84657011Y-98859332D01*
X84587853Y-98869276D01*
X84524297Y-98840251D01*
X84506234Y-98820850D01*
X84450603Y-98746538D01*
X84447546Y-98742454D01*
X84447544Y-98742453D01*
X84447544Y-98742452D01*
X84332335Y-98656206D01*
X84332328Y-98656202D01*
X84197482Y-98605908D01*
X84197483Y-98605908D01*
X84137883Y-98599501D01*
X84137881Y-98599500D01*
X84137873Y-98599500D01*
X84137864Y-98599500D01*
X82242129Y-98599500D01*
X82242123Y-98599501D01*
X82182516Y-98605908D01*
X82047671Y-98656202D01*
X82047664Y-98656206D01*
X81932455Y-98742452D01*
X81932452Y-98742455D01*
X81846206Y-98857664D01*
X81846202Y-98857671D01*
X81795908Y-98992517D01*
X81789501Y-99052116D01*
X81789500Y-99052135D01*
X81789500Y-100947870D01*
X81789501Y-100947876D01*
X81795908Y-101007483D01*
X81846202Y-101142328D01*
X81846206Y-101142335D01*
X81932452Y-101257544D01*
X81932455Y-101257547D01*
X82047664Y-101343793D01*
X82047669Y-101343796D01*
X82108833Y-101366608D01*
X82164766Y-101408478D01*
X82189184Y-101473942D01*
X82189500Y-101482790D01*
X82189500Y-105138544D01*
X82208724Y-105235188D01*
X82227946Y-105331828D01*
X82227948Y-105331832D01*
X82227949Y-105331836D01*
X82238948Y-105358390D01*
X82250038Y-105385164D01*
X82303366Y-105513911D01*
X82303371Y-105513920D01*
X82412859Y-105677780D01*
X82412860Y-105677781D01*
X82412861Y-105677782D01*
X82552218Y-105817139D01*
X82552219Y-105817139D01*
X82559286Y-105824206D01*
X82559285Y-105824206D01*
X82559289Y-105824209D01*
X86323281Y-109588202D01*
X86356766Y-109649525D01*
X86358073Y-109656484D01*
X86381522Y-109804531D01*
X86381523Y-109804534D01*
X86444780Y-109999219D01*
X86465825Y-110040523D01*
X86537715Y-110181613D01*
X86658028Y-110347213D01*
X86802786Y-110491971D01*
X86957749Y-110604556D01*
X86968390Y-110612287D01*
X87072983Y-110665580D01*
X87150776Y-110705218D01*
X87150778Y-110705218D01*
X87150781Y-110705220D01*
X87255137Y-110739127D01*
X87345465Y-110768477D01*
X87446557Y-110784488D01*
X87547648Y-110800500D01*
X87547649Y-110800500D01*
X87752351Y-110800500D01*
X87752352Y-110800500D01*
X87954534Y-110768477D01*
X88149219Y-110705220D01*
X88331610Y-110612287D01*
X88424590Y-110544732D01*
X88497213Y-110491971D01*
X88497215Y-110491968D01*
X88497219Y-110491966D01*
X88641966Y-110347219D01*
X88641968Y-110347215D01*
X88641971Y-110347213D01*
X88694732Y-110274590D01*
X88762287Y-110181610D01*
X88855220Y-109999219D01*
X88918477Y-109804534D01*
X88950500Y-109602352D01*
X88950500Y-109397648D01*
X88923434Y-109226760D01*
X88918477Y-109195465D01*
X88880706Y-109079219D01*
X88855220Y-109000781D01*
X88855218Y-109000778D01*
X88855218Y-109000776D01*
X88767794Y-108829199D01*
X88762287Y-108818390D01*
X88754556Y-108807749D01*
X88641971Y-108652786D01*
X88497213Y-108508028D01*
X88331613Y-108387715D01*
X88331612Y-108387714D01*
X88331610Y-108387713D01*
X88149219Y-108294780D01*
X87954534Y-108231523D01*
X87954531Y-108231522D01*
X87954532Y-108231522D01*
X87806484Y-108208073D01*
X87743350Y-108178143D01*
X87738202Y-108173281D01*
X84226819Y-104661898D01*
X84193334Y-104600575D01*
X84190500Y-104574217D01*
X84190500Y-101482790D01*
X84210185Y-101415751D01*
X84262989Y-101369996D01*
X84271146Y-101366616D01*
X84332331Y-101343796D01*
X84447546Y-101257546D01*
X84533796Y-101142331D01*
X84561429Y-101068243D01*
X84563601Y-101062420D01*
X84605471Y-101006486D01*
X84670936Y-100982068D01*
X84739209Y-100996919D01*
X84767464Y-101018071D01*
X84817636Y-101068243D01*
X84817641Y-101068247D01*
X84919603Y-101142326D01*
X84995978Y-101197815D01*
X85124375Y-101263237D01*
X85192393Y-101297895D01*
X85192396Y-101297896D01*
X85297221Y-101331955D01*
X85402049Y-101366015D01*
X85619778Y-101400500D01*
X85619779Y-101400500D01*
X85840221Y-101400500D01*
X85840222Y-101400500D01*
X86057951Y-101366015D01*
X86267606Y-101297895D01*
X86464022Y-101197815D01*
X86642365Y-101068242D01*
X86798242Y-100912365D01*
X86927815Y-100734022D01*
X87027895Y-100537606D01*
X87096015Y-100327951D01*
X87130500Y-100110222D01*
X87130500Y-100065781D01*
X87150185Y-99998742D01*
X87166814Y-99978105D01*
X95314867Y-91830051D01*
X95376188Y-91796568D01*
X95389943Y-91794376D01*
X95432797Y-91789999D01*
X95599334Y-91734814D01*
X95748656Y-91642712D01*
X95854550Y-91536818D01*
X95915873Y-91503334D01*
X95942231Y-91500500D01*
X106598542Y-91500500D01*
X106619578Y-91496315D01*
X106695188Y-91481275D01*
X106791836Y-91462051D01*
X106847703Y-91438910D01*
X106973914Y-91386632D01*
X107137782Y-91277139D01*
X107277139Y-91137782D01*
X107277139Y-91137780D01*
X107287347Y-91127573D01*
X107287348Y-91127570D01*
X110878102Y-87536819D01*
X110939425Y-87503334D01*
X110965783Y-87500500D01*
X130707769Y-87500500D01*
X130737209Y-87509144D01*
X130767196Y-87515668D01*
X130772211Y-87519422D01*
X130774808Y-87520185D01*
X130795450Y-87536819D01*
X130883181Y-87624550D01*
X130916666Y-87685873D01*
X130919500Y-87712231D01*
X130919500Y-103868542D01*
X130923314Y-103887715D01*
X130931038Y-103926547D01*
X130957949Y-104061836D01*
X130979295Y-104113369D01*
X130992996Y-104146446D01*
X131033369Y-104243917D01*
X131142860Y-104407781D01*
X131142863Y-104407785D01*
X131286537Y-104551459D01*
X131286559Y-104551479D01*
X133722899Y-106987819D01*
X133756384Y-107049142D01*
X133751400Y-107118834D01*
X133709528Y-107174767D01*
X133644064Y-107199184D01*
X133635218Y-107199500D01*
X133431456Y-107199500D01*
X133238171Y-107237947D01*
X133238163Y-107237949D01*
X133190556Y-107257669D01*
X133190555Y-107257669D01*
X133056092Y-107313364D01*
X133056079Y-107313371D01*
X132937631Y-107392517D01*
X132937630Y-107392518D01*
X132892215Y-107422862D01*
X132892214Y-107422863D01*
X131496693Y-108818386D01*
X131092220Y-109222859D01*
X131092218Y-109222861D01*
X131053469Y-109261610D01*
X130952859Y-109362219D01*
X130843371Y-109526079D01*
X130843364Y-109526092D01*
X130767950Y-109708160D01*
X130767947Y-109708170D01*
X130729500Y-109901456D01*
X130729500Y-109901459D01*
X130729500Y-114598541D01*
X130729500Y-114598543D01*
X130729499Y-114598543D01*
X130767947Y-114791829D01*
X130767950Y-114791839D01*
X130843364Y-114973907D01*
X130843371Y-114973920D01*
X130952860Y-115137781D01*
X130952863Y-115137785D01*
X131096537Y-115281459D01*
X131096559Y-115281479D01*
X135449735Y-119634655D01*
X135449764Y-119634686D01*
X135592214Y-119777136D01*
X135592218Y-119777139D01*
X135756079Y-119886628D01*
X135756092Y-119886635D01*
X135884833Y-119939961D01*
X135927744Y-119957735D01*
X135938164Y-119962051D01*
X136034812Y-119981275D01*
X136083135Y-119990887D01*
X136131458Y-120000500D01*
X136131459Y-120000500D01*
X142328542Y-120000500D01*
X142359566Y-119994328D01*
X142425188Y-119981275D01*
X142521836Y-119962051D01*
X142575165Y-119939961D01*
X142703914Y-119886632D01*
X142867782Y-119777139D01*
X143007139Y-119637782D01*
X143007139Y-119637780D01*
X143017347Y-119627573D01*
X143017348Y-119627570D01*
X144507139Y-118137782D01*
X144535020Y-118096055D01*
X144616632Y-117973914D01*
X144680178Y-117820500D01*
X144692051Y-117791836D01*
X144730500Y-117598541D01*
X144730500Y-117401460D01*
X144730500Y-100370148D01*
X144750185Y-100303109D01*
X144766819Y-100282467D01*
X148417819Y-96631467D01*
X148479142Y-96597982D01*
X148548834Y-96602966D01*
X148604767Y-96644838D01*
X148629184Y-96710302D01*
X148629500Y-96719148D01*
X148629500Y-98400017D01*
X148640000Y-98502796D01*
X148643110Y-98512181D01*
X148695186Y-98669335D01*
X148787288Y-98818656D01*
X148911344Y-98942712D01*
X149060665Y-99034814D01*
X149144505Y-99062596D01*
X149201949Y-99102368D01*
X149228772Y-99166883D01*
X149229500Y-99180301D01*
X149229500Y-116518541D01*
X149229500Y-116518543D01*
X149229499Y-116518543D01*
X149245412Y-116598537D01*
X149246187Y-116602432D01*
X149253225Y-116637815D01*
X149253225Y-116637816D01*
X149267946Y-116711828D01*
X149267949Y-116711837D01*
X149343366Y-116893911D01*
X149414482Y-117000344D01*
X149433853Y-117049837D01*
X149461522Y-117224534D01*
X149524781Y-117419223D01*
X149582081Y-117531678D01*
X149616151Y-117598545D01*
X149617715Y-117601613D01*
X149738028Y-117767213D01*
X149882786Y-117911971D01*
X149999361Y-117996666D01*
X150048390Y-118032287D01*
X150164607Y-118091503D01*
X150230776Y-118125218D01*
X150230778Y-118125218D01*
X150230781Y-118125220D01*
X150320569Y-118154394D01*
X150425465Y-118188477D01*
X150510208Y-118201899D01*
X150627648Y-118220500D01*
X150627649Y-118220500D01*
X150832351Y-118220500D01*
X150832352Y-118220500D01*
X151034534Y-118188477D01*
X151229219Y-118125220D01*
X151411610Y-118032287D01*
X151528532Y-117947339D01*
X151577213Y-117911971D01*
X151577215Y-117911968D01*
X151577219Y-117911966D01*
X151721966Y-117767219D01*
X151721968Y-117767215D01*
X151721971Y-117767213D01*
X151809712Y-117646446D01*
X151842287Y-117601610D01*
X151935220Y-117419219D01*
X151998477Y-117224534D01*
X152030500Y-117022352D01*
X152030500Y-116817648D01*
X152017519Y-116735690D01*
X151998477Y-116615465D01*
X151945604Y-116452741D01*
X151935220Y-116420781D01*
X151935218Y-116420778D01*
X151935218Y-116420776D01*
X151863912Y-116280832D01*
X151842287Y-116238390D01*
X151834556Y-116227749D01*
X151721971Y-116072786D01*
X151577213Y-115928028D01*
X151411611Y-115807713D01*
X151298204Y-115749928D01*
X151247409Y-115701953D01*
X151230500Y-115639444D01*
X151230500Y-100214782D01*
X151250185Y-100147743D01*
X151302989Y-100101988D01*
X151372147Y-100092044D01*
X151435703Y-100121069D01*
X151442181Y-100127101D01*
X157989735Y-106674655D01*
X157989764Y-106674686D01*
X158132214Y-106817136D01*
X158132218Y-106817139D01*
X158296079Y-106926628D01*
X158296081Y-106926629D01*
X158296086Y-106926632D01*
X158392653Y-106966631D01*
X158478164Y-107002051D01*
X158574812Y-107021275D01*
X158646122Y-107035460D01*
X158671458Y-107040500D01*
X158671459Y-107040500D01*
X158671460Y-107040500D01*
X158868540Y-107040500D01*
X172234238Y-107040500D01*
X172301277Y-107060185D01*
X172307119Y-107064179D01*
X172428390Y-107152287D01*
X172519840Y-107198883D01*
X172521080Y-107199515D01*
X172571876Y-107247490D01*
X172588671Y-107315311D01*
X172566134Y-107381446D01*
X172521080Y-107420485D01*
X172428386Y-107467715D01*
X172262786Y-107588028D01*
X172118028Y-107732786D01*
X171997715Y-107898386D01*
X171904781Y-108080776D01*
X171841522Y-108275465D01*
X171809500Y-108477648D01*
X171809500Y-108682351D01*
X171841522Y-108884534D01*
X171904781Y-109079223D01*
X171936937Y-109142331D01*
X171995643Y-109257548D01*
X171997715Y-109261613D01*
X172118028Y-109427213D01*
X172262786Y-109571971D01*
X172428385Y-109692284D01*
X172428387Y-109692285D01*
X172428390Y-109692287D01*
X172521630Y-109739795D01*
X172572426Y-109787770D01*
X172589221Y-109855591D01*
X172566684Y-109921725D01*
X172521630Y-109960765D01*
X172428644Y-110008143D01*
X172384077Y-110040523D01*
X172384077Y-110040524D01*
X173063554Y-110720000D01*
X173057339Y-110720000D01*
X172955606Y-110747259D01*
X172864394Y-110799920D01*
X172789920Y-110874394D01*
X172737259Y-110965606D01*
X172710000Y-111067339D01*
X172710000Y-111073553D01*
X172030524Y-110394077D01*
X172030523Y-110394077D01*
X171998143Y-110438644D01*
X171905244Y-110620968D01*
X171842009Y-110815582D01*
X171810000Y-111017682D01*
X171810000Y-111222317D01*
X171842009Y-111424417D01*
X171905244Y-111619031D01*
X171998141Y-111801350D01*
X171998147Y-111801359D01*
X172030523Y-111845921D01*
X172030524Y-111845922D01*
X172710000Y-111166446D01*
X172710000Y-111172661D01*
X172737259Y-111274394D01*
X172789920Y-111365606D01*
X172864394Y-111440080D01*
X172955606Y-111492741D01*
X173057339Y-111520000D01*
X173063553Y-111520000D01*
X172384076Y-112199474D01*
X172428650Y-112231859D01*
X172610968Y-112324755D01*
X172805582Y-112387990D01*
X173007683Y-112420000D01*
X173212317Y-112420000D01*
X173414417Y-112387990D01*
X173609031Y-112324755D01*
X173791349Y-112231859D01*
X173835921Y-112199474D01*
X173156447Y-111520000D01*
X173162661Y-111520000D01*
X173264394Y-111492741D01*
X173355606Y-111440080D01*
X173430080Y-111365606D01*
X173482741Y-111274394D01*
X173510000Y-111172661D01*
X173510000Y-111166446D01*
X174189474Y-111845921D01*
X174221859Y-111801349D01*
X174314754Y-111619031D01*
X174355068Y-111494962D01*
X174394506Y-111437287D01*
X174458864Y-111410089D01*
X174527711Y-111422004D01*
X174560680Y-111445600D01*
X184289735Y-121174655D01*
X184289764Y-121174686D01*
X184432214Y-121317136D01*
X184432218Y-121317139D01*
X184596082Y-121426630D01*
X184596084Y-121426630D01*
X184596086Y-121426632D01*
X184703068Y-121470945D01*
X184778164Y-121502051D01*
X184874812Y-121521275D01*
X184880287Y-121522364D01*
X184971458Y-121540500D01*
X184971459Y-121540500D01*
X184971460Y-121540500D01*
X185168540Y-121540500D01*
X192950342Y-121540500D01*
X193017381Y-121560185D01*
X193023220Y-121564177D01*
X193050319Y-121583865D01*
X193221491Y-121671082D01*
X193221493Y-121671083D01*
X193312845Y-121700764D01*
X193404199Y-121730447D01*
X193593945Y-121760500D01*
X193593946Y-121760500D01*
X193786054Y-121760500D01*
X193786055Y-121760500D01*
X193975801Y-121730447D01*
X194158509Y-121671082D01*
X194329681Y-121583865D01*
X194485102Y-121470945D01*
X194620945Y-121335102D01*
X194733865Y-121179681D01*
X194821082Y-121008509D01*
X194880447Y-120825801D01*
X194910500Y-120636055D01*
X194910500Y-120443945D01*
X194880447Y-120254199D01*
X194821082Y-120071491D01*
X194733865Y-119900319D01*
X194620945Y-119744898D01*
X194485102Y-119609055D01*
X194329681Y-119496135D01*
X194158506Y-119408916D01*
X193975802Y-119349553D01*
X193880928Y-119334526D01*
X193786055Y-119319500D01*
X193593945Y-119319500D01*
X193530696Y-119329517D01*
X193404197Y-119349553D01*
X193221493Y-119408916D01*
X193050318Y-119496135D01*
X193023228Y-119515818D01*
X192957422Y-119539298D01*
X192950342Y-119539500D01*
X185535782Y-119539500D01*
X185468743Y-119519815D01*
X185448101Y-119503181D01*
X174436717Y-108491797D01*
X174403232Y-108430474D01*
X174401925Y-108423513D01*
X174378477Y-108275466D01*
X174378477Y-108275465D01*
X174315218Y-108080776D01*
X174281503Y-108014607D01*
X174222287Y-107898390D01*
X174214556Y-107887749D01*
X174101971Y-107732786D01*
X173957213Y-107588028D01*
X173791614Y-107467715D01*
X173785006Y-107464348D01*
X173698917Y-107420483D01*
X173648123Y-107372511D01*
X173631328Y-107304690D01*
X173653865Y-107238555D01*
X173698917Y-107199516D01*
X173791610Y-107152287D01*
X173812770Y-107136913D01*
X173957213Y-107031971D01*
X173957215Y-107031968D01*
X173957219Y-107031966D01*
X174101966Y-106887219D01*
X174101968Y-106887215D01*
X174101971Y-106887213D01*
X174154732Y-106814590D01*
X174222287Y-106721610D01*
X174315220Y-106539219D01*
X174378477Y-106344534D01*
X174410500Y-106142352D01*
X174410500Y-105937648D01*
X174383706Y-105768477D01*
X174378477Y-105735465D01*
X174336439Y-105606086D01*
X174315220Y-105540781D01*
X174315218Y-105540778D01*
X174315218Y-105540776D01*
X174281503Y-105474607D01*
X174222287Y-105358390D01*
X174181944Y-105302862D01*
X174101971Y-105192786D01*
X173957219Y-105048034D01*
X173945195Y-105039298D01*
X173863546Y-104979977D01*
X173820882Y-104924649D01*
X173814903Y-104855036D01*
X173847508Y-104793240D01*
X173897426Y-104761955D01*
X173979334Y-104734814D01*
X174128656Y-104642712D01*
X174252712Y-104518656D01*
X174344814Y-104369334D01*
X174399999Y-104202797D01*
X174410500Y-104100009D01*
X174410499Y-102899992D01*
X174399999Y-102797203D01*
X174344814Y-102630666D01*
X174252712Y-102481344D01*
X174128656Y-102357288D01*
X173979334Y-102265186D01*
X173812797Y-102210001D01*
X173812795Y-102210000D01*
X173710010Y-102199500D01*
X172509998Y-102199500D01*
X172509981Y-102199501D01*
X172407203Y-102210000D01*
X172407200Y-102210001D01*
X172240668Y-102265185D01*
X172240663Y-102265187D01*
X172091342Y-102357289D01*
X171967289Y-102481342D01*
X171875187Y-102630663D01*
X171875186Y-102630666D01*
X171820001Y-102797203D01*
X171820001Y-102797204D01*
X171820000Y-102797204D01*
X171809500Y-102899983D01*
X171809500Y-104100001D01*
X171809501Y-104100018D01*
X171820000Y-104202796D01*
X171820001Y-104202799D01*
X171858303Y-104318386D01*
X171875186Y-104369334D01*
X171967288Y-104518656D01*
X172091344Y-104642712D01*
X172240666Y-104734814D01*
X172322570Y-104761954D01*
X172332626Y-104768916D01*
X172344539Y-104771687D01*
X172360813Y-104788432D01*
X172380015Y-104801727D01*
X172384710Y-104813020D01*
X172393235Y-104821792D01*
X172397872Y-104844679D01*
X172406838Y-104866243D01*
X172404682Y-104878282D01*
X172407111Y-104890269D01*
X172398639Y-104912029D01*
X172394523Y-104935018D01*
X172385576Y-104945583D01*
X172381763Y-104955379D01*
X172356453Y-104979977D01*
X172329964Y-104999223D01*
X172307123Y-105015817D01*
X172241319Y-105039298D01*
X172234238Y-105039500D01*
X159235782Y-105039500D01*
X159168743Y-105019815D01*
X159148101Y-105003181D01*
X152657101Y-98512181D01*
X152623616Y-98450858D01*
X152628600Y-98381166D01*
X152670472Y-98325233D01*
X152735936Y-98300816D01*
X152744782Y-98300500D01*
X152848844Y-98300500D01*
X152848845Y-98300499D01*
X153003497Y-98269737D01*
X153149179Y-98209394D01*
X153280289Y-98121789D01*
X153391789Y-98010289D01*
X153479394Y-97879179D01*
X153539737Y-97733497D01*
X153570500Y-97578842D01*
X153570500Y-97421158D01*
X153570500Y-97421155D01*
X153570499Y-97421153D01*
X153539738Y-97266510D01*
X153539737Y-97266503D01*
X153539735Y-97266498D01*
X153479397Y-97120827D01*
X153479390Y-97120814D01*
X153391789Y-96989711D01*
X153391786Y-96989707D01*
X153280292Y-96878213D01*
X153280288Y-96878210D01*
X153149185Y-96790609D01*
X153149172Y-96790602D01*
X153003501Y-96730264D01*
X153003489Y-96730261D01*
X152848845Y-96699500D01*
X152848842Y-96699500D01*
X152691158Y-96699500D01*
X152691155Y-96699500D01*
X152536510Y-96730261D01*
X152536498Y-96730264D01*
X152390827Y-96790602D01*
X152390814Y-96790609D01*
X152259711Y-96878210D01*
X152259707Y-96878213D01*
X152148213Y-96989707D01*
X152148210Y-96989711D01*
X152057602Y-97125315D01*
X152003989Y-97170120D01*
X151934664Y-97178827D01*
X151871637Y-97148672D01*
X151834918Y-97089229D01*
X151830500Y-97056424D01*
X151830500Y-96599995D01*
X151830499Y-96599982D01*
X151819999Y-96497203D01*
X151776428Y-96365715D01*
X151764814Y-96330665D01*
X151672712Y-96181344D01*
X151548656Y-96057288D01*
X151543871Y-96052503D01*
X151510386Y-95991180D01*
X151515370Y-95921488D01*
X151531235Y-95891936D01*
X151552418Y-95862781D01*
X151598870Y-95798845D01*
X151713241Y-95574379D01*
X151791090Y-95334785D01*
X151795568Y-95306510D01*
X151796357Y-95301531D01*
X151826286Y-95238396D01*
X151885597Y-95201464D01*
X151955460Y-95202462D01*
X152013692Y-95241071D01*
X152033391Y-95273476D01*
X152060602Y-95339173D01*
X152060609Y-95339185D01*
X152148210Y-95470288D01*
X152148213Y-95470292D01*
X152259707Y-95581786D01*
X152259711Y-95581789D01*
X152390814Y-95669390D01*
X152390827Y-95669397D01*
X152536498Y-95729735D01*
X152536503Y-95729737D01*
X152691153Y-95760499D01*
X152691156Y-95760500D01*
X152691158Y-95760500D01*
X152848844Y-95760500D01*
X152848845Y-95760499D01*
X153003497Y-95729737D01*
X153149179Y-95669394D01*
X153280289Y-95581789D01*
X153391789Y-95470289D01*
X153479394Y-95339179D01*
X153539737Y-95193497D01*
X153570500Y-95038842D01*
X153570500Y-94881158D01*
X153570500Y-94881155D01*
X153570499Y-94881153D01*
X153555887Y-94807691D01*
X153562114Y-94738100D01*
X153604977Y-94682923D01*
X153670867Y-94659678D01*
X153677504Y-94659500D01*
X170423218Y-94659500D01*
X170490257Y-94679185D01*
X170510899Y-94695819D01*
X179403281Y-103588202D01*
X179436766Y-103649525D01*
X179438073Y-103656484D01*
X179461522Y-103804531D01*
X179461523Y-103804534D01*
X179524780Y-103999219D01*
X179615639Y-104177540D01*
X179617715Y-104181613D01*
X179738028Y-104347213D01*
X179882786Y-104491971D01*
X180037749Y-104604556D01*
X180048390Y-104612287D01*
X180131030Y-104654394D01*
X180141080Y-104659515D01*
X180191876Y-104707490D01*
X180208671Y-104775311D01*
X180186134Y-104841446D01*
X180141080Y-104880485D01*
X180048386Y-104927715D01*
X179882786Y-105048028D01*
X179738028Y-105192786D01*
X179617715Y-105358386D01*
X179524781Y-105540776D01*
X179461522Y-105735465D01*
X179429500Y-105937648D01*
X179429500Y-106142351D01*
X179461522Y-106344534D01*
X179524781Y-106539223D01*
X179593788Y-106674655D01*
X179617713Y-106721610D01*
X179705819Y-106842877D01*
X179729298Y-106908681D01*
X179729500Y-106915761D01*
X179729500Y-107704237D01*
X179709815Y-107771276D01*
X179705818Y-107777122D01*
X179617715Y-107898386D01*
X179524781Y-108080776D01*
X179461522Y-108275465D01*
X179429500Y-108477648D01*
X179429500Y-108682351D01*
X179461522Y-108884534D01*
X179524781Y-109079223D01*
X179556937Y-109142331D01*
X179615643Y-109257548D01*
X179617715Y-109261613D01*
X179738028Y-109427213D01*
X179882786Y-109571971D01*
X180048385Y-109692284D01*
X180048387Y-109692285D01*
X180048390Y-109692287D01*
X180141630Y-109739795D01*
X180192426Y-109787770D01*
X180209221Y-109855591D01*
X180186684Y-109921725D01*
X180141630Y-109960765D01*
X180048644Y-110008143D01*
X180004077Y-110040523D01*
X180004077Y-110040524D01*
X180683554Y-110720000D01*
X180677339Y-110720000D01*
X180575606Y-110747259D01*
X180484394Y-110799920D01*
X180409920Y-110874394D01*
X180357259Y-110965606D01*
X180330000Y-111067339D01*
X180330000Y-111073553D01*
X179650524Y-110394077D01*
X179650523Y-110394077D01*
X179618143Y-110438644D01*
X179525244Y-110620968D01*
X179462009Y-110815582D01*
X179430000Y-111017682D01*
X179430000Y-111222317D01*
X179462009Y-111424417D01*
X179525244Y-111619031D01*
X179618141Y-111801350D01*
X179618147Y-111801359D01*
X179650523Y-111845921D01*
X179650524Y-111845922D01*
X180330000Y-111166446D01*
X180330000Y-111172661D01*
X180357259Y-111274394D01*
X180409920Y-111365606D01*
X180484394Y-111440080D01*
X180575606Y-111492741D01*
X180677339Y-111520000D01*
X180683553Y-111520000D01*
X180004076Y-112199474D01*
X180048650Y-112231859D01*
X180230968Y-112324755D01*
X180425582Y-112387990D01*
X180627683Y-112420000D01*
X180832317Y-112420000D01*
X181034417Y-112387990D01*
X181229031Y-112324755D01*
X181411349Y-112231859D01*
X181455921Y-112199474D01*
X180776447Y-111520000D01*
X180782661Y-111520000D01*
X180884394Y-111492741D01*
X180975606Y-111440080D01*
X181050080Y-111365606D01*
X181102741Y-111274394D01*
X181130000Y-111172661D01*
X181130000Y-111166447D01*
X181809474Y-111845921D01*
X181841859Y-111801349D01*
X181934755Y-111619031D01*
X181997990Y-111424417D01*
X182030000Y-111222317D01*
X182030000Y-111017682D01*
X181997990Y-110815582D01*
X181934755Y-110620968D01*
X181841859Y-110438650D01*
X181809474Y-110394077D01*
X181809474Y-110394076D01*
X181130000Y-111073551D01*
X181130000Y-111067339D01*
X181102741Y-110965606D01*
X181050080Y-110874394D01*
X180975606Y-110799920D01*
X180884394Y-110747259D01*
X180782661Y-110720000D01*
X180776446Y-110720000D01*
X181455922Y-110040524D01*
X181455921Y-110040523D01*
X181411359Y-110008147D01*
X181411350Y-110008141D01*
X181318369Y-109960765D01*
X181267573Y-109912790D01*
X181250778Y-109844969D01*
X181273315Y-109778835D01*
X181318370Y-109739795D01*
X181411610Y-109692287D01*
X181470467Y-109649525D01*
X181577213Y-109571971D01*
X181577215Y-109571968D01*
X181577219Y-109571966D01*
X181721966Y-109427219D01*
X181721968Y-109427215D01*
X181721971Y-109427213D01*
X181805279Y-109312547D01*
X181842287Y-109261610D01*
X181935220Y-109079219D01*
X181998477Y-108884534D01*
X182030500Y-108682352D01*
X182030500Y-108477648D01*
X182016256Y-108387715D01*
X181998477Y-108275465D01*
X181935218Y-108080776D01*
X181901503Y-108014607D01*
X181842287Y-107898390D01*
X181829654Y-107881003D01*
X181754182Y-107777122D01*
X181730702Y-107711316D01*
X181730500Y-107704237D01*
X181730500Y-106915761D01*
X181750185Y-106848722D01*
X181754165Y-106842899D01*
X181842287Y-106721610D01*
X181935220Y-106539219D01*
X181998477Y-106344534D01*
X182030500Y-106142352D01*
X182030500Y-105937648D01*
X182003706Y-105768477D01*
X181998477Y-105735465D01*
X181956439Y-105606086D01*
X181935220Y-105540781D01*
X181935218Y-105540778D01*
X181935218Y-105540776D01*
X181901503Y-105474607D01*
X181842287Y-105358390D01*
X181801944Y-105302862D01*
X181721971Y-105192786D01*
X181577213Y-105048028D01*
X181411614Y-104927715D01*
X181405006Y-104924348D01*
X181318917Y-104880483D01*
X181268123Y-104832511D01*
X181251328Y-104764690D01*
X181273865Y-104698555D01*
X181318917Y-104659516D01*
X181411610Y-104612287D01*
X181532877Y-104524181D01*
X181598683Y-104500702D01*
X181605762Y-104500500D01*
X190264218Y-104500500D01*
X190331257Y-104520185D01*
X190351898Y-104536818D01*
X190727398Y-104912319D01*
X190760883Y-104973641D01*
X190755899Y-105043333D01*
X190727398Y-105087680D01*
X190589158Y-105225921D01*
X190512220Y-105302859D01*
X190512218Y-105302861D01*
X190467866Y-105347213D01*
X190372859Y-105442219D01*
X190263371Y-105606079D01*
X190263364Y-105606092D01*
X190187950Y-105788160D01*
X190187947Y-105788170D01*
X190149500Y-105981456D01*
X190149500Y-117260342D01*
X190129815Y-117327381D01*
X190125818Y-117333228D01*
X190106135Y-117360318D01*
X190018916Y-117531493D01*
X189959553Y-117714197D01*
X189951156Y-117767213D01*
X189929500Y-117903945D01*
X189929500Y-118096055D01*
X189938740Y-118154394D01*
X189959553Y-118285802D01*
X190018916Y-118468506D01*
X190018918Y-118468509D01*
X190106135Y-118639681D01*
X190219055Y-118795102D01*
X190354898Y-118930945D01*
X190510319Y-119043865D01*
X190680576Y-119130616D01*
X190681493Y-119131083D01*
X190772845Y-119160764D01*
X190864199Y-119190447D01*
X191053945Y-119220500D01*
X191053946Y-119220500D01*
X191246054Y-119220500D01*
X191246055Y-119220500D01*
X191435801Y-119190447D01*
X191618509Y-119131082D01*
X191789681Y-119043865D01*
X191945102Y-118930945D01*
X192080945Y-118795102D01*
X192193865Y-118639681D01*
X192281082Y-118468509D01*
X192340447Y-118285801D01*
X192370500Y-118096055D01*
X192370500Y-117903984D01*
X195010000Y-117903984D01*
X195010000Y-118096015D01*
X195040040Y-118285684D01*
X195099383Y-118468321D01*
X195186561Y-118639415D01*
X195207798Y-118668646D01*
X195830000Y-118046445D01*
X195830000Y-118052661D01*
X195857259Y-118154394D01*
X195909920Y-118245606D01*
X195984394Y-118320080D01*
X196075606Y-118372741D01*
X196177339Y-118400000D01*
X196183554Y-118400000D01*
X195561351Y-119022200D01*
X195561352Y-119022201D01*
X195590577Y-119043434D01*
X195761678Y-119130616D01*
X195944315Y-119189959D01*
X196133985Y-119220000D01*
X196326015Y-119220000D01*
X196515684Y-119189959D01*
X196698321Y-119130616D01*
X196869419Y-119043436D01*
X196898646Y-119022201D01*
X196898646Y-119022200D01*
X196276447Y-118400000D01*
X196282661Y-118400000D01*
X196384394Y-118372741D01*
X196475606Y-118320080D01*
X196550080Y-118245606D01*
X196602741Y-118154394D01*
X196630000Y-118052661D01*
X196630000Y-118046446D01*
X197252200Y-118668646D01*
X197252201Y-118668646D01*
X197273436Y-118639419D01*
X197360616Y-118468321D01*
X197419959Y-118285684D01*
X197450000Y-118096015D01*
X197450000Y-117903984D01*
X197419959Y-117714315D01*
X197360616Y-117531678D01*
X197273434Y-117360577D01*
X197252201Y-117331352D01*
X197252200Y-117331351D01*
X196630000Y-117953552D01*
X196630000Y-117947339D01*
X196602741Y-117845606D01*
X196550080Y-117754394D01*
X196475606Y-117679920D01*
X196384394Y-117627259D01*
X196282661Y-117600000D01*
X196276447Y-117600000D01*
X196898646Y-116977798D01*
X196869415Y-116956561D01*
X196698321Y-116869383D01*
X196515684Y-116810040D01*
X196326015Y-116780000D01*
X196133985Y-116780000D01*
X195944315Y-116810040D01*
X195761678Y-116869383D01*
X195590578Y-116956564D01*
X195561352Y-116977798D01*
X195561351Y-116977798D01*
X196183554Y-117600000D01*
X196177339Y-117600000D01*
X196075606Y-117627259D01*
X195984394Y-117679920D01*
X195909920Y-117754394D01*
X195857259Y-117845606D01*
X195830000Y-117947339D01*
X195830000Y-117953553D01*
X195207798Y-117331351D01*
X195207798Y-117331352D01*
X195186564Y-117360578D01*
X195099383Y-117531678D01*
X195040040Y-117714315D01*
X195010000Y-117903984D01*
X192370500Y-117903984D01*
X192370500Y-117903945D01*
X192340447Y-117714199D01*
X192281082Y-117531491D01*
X192193865Y-117360319D01*
X192174181Y-117333227D01*
X192167029Y-117313181D01*
X192155523Y-117295277D01*
X192152068Y-117271252D01*
X192150702Y-117267422D01*
X192150500Y-117260342D01*
X192150500Y-106545781D01*
X192170185Y-106478742D01*
X192186815Y-106458104D01*
X192818203Y-105826715D01*
X192879524Y-105793232D01*
X192886473Y-105791927D01*
X193034534Y-105768477D01*
X193229219Y-105705220D01*
X193411610Y-105612287D01*
X193547010Y-105513914D01*
X193577213Y-105491971D01*
X193577215Y-105491968D01*
X193577219Y-105491966D01*
X193721966Y-105347219D01*
X193721968Y-105347215D01*
X193721971Y-105347213D01*
X193774732Y-105274590D01*
X193842287Y-105181610D01*
X193935220Y-104999219D01*
X193998477Y-104804534D01*
X194030500Y-104602352D01*
X194030500Y-104397682D01*
X196430000Y-104397682D01*
X196430000Y-104602317D01*
X196462009Y-104804417D01*
X196525244Y-104999031D01*
X196618141Y-105181350D01*
X196618147Y-105181359D01*
X196650523Y-105225921D01*
X196650524Y-105225922D01*
X197330000Y-104546446D01*
X197330000Y-104552661D01*
X197357259Y-104654394D01*
X197409920Y-104745606D01*
X197484394Y-104820080D01*
X197575606Y-104872741D01*
X197677339Y-104900000D01*
X197683553Y-104900000D01*
X197004076Y-105579474D01*
X197048650Y-105611859D01*
X197230968Y-105704755D01*
X197425582Y-105767990D01*
X197627683Y-105800000D01*
X197832317Y-105800000D01*
X198034417Y-105767990D01*
X198229031Y-105704755D01*
X198411349Y-105611859D01*
X198455921Y-105579474D01*
X197776447Y-104900000D01*
X197782661Y-104900000D01*
X197884394Y-104872741D01*
X197975606Y-104820080D01*
X198050080Y-104745606D01*
X198102741Y-104654394D01*
X198130000Y-104552661D01*
X198130000Y-104546447D01*
X198809474Y-105225921D01*
X198841859Y-105181349D01*
X198934755Y-104999031D01*
X198997990Y-104804417D01*
X199030000Y-104602317D01*
X199030000Y-104397682D01*
X198997990Y-104195582D01*
X198934755Y-104000968D01*
X198841859Y-103818650D01*
X198809474Y-103774077D01*
X198809474Y-103774076D01*
X198130000Y-104453551D01*
X198130000Y-104447339D01*
X198102741Y-104345606D01*
X198050080Y-104254394D01*
X197975606Y-104179920D01*
X197884394Y-104127259D01*
X197782661Y-104100000D01*
X197776446Y-104100000D01*
X198455922Y-103420524D01*
X198455921Y-103420523D01*
X198411359Y-103388147D01*
X198411350Y-103388141D01*
X198229031Y-103295244D01*
X198034417Y-103232009D01*
X197832317Y-103200000D01*
X197627683Y-103200000D01*
X197425582Y-103232009D01*
X197230968Y-103295244D01*
X197048644Y-103388143D01*
X197004077Y-103420523D01*
X197004077Y-103420524D01*
X197683554Y-104100000D01*
X197677339Y-104100000D01*
X197575606Y-104127259D01*
X197484394Y-104179920D01*
X197409920Y-104254394D01*
X197357259Y-104345606D01*
X197330000Y-104447339D01*
X197330000Y-104453553D01*
X196650524Y-103774077D01*
X196650523Y-103774077D01*
X196618143Y-103818644D01*
X196525244Y-104000968D01*
X196462009Y-104195582D01*
X196430000Y-104397682D01*
X194030500Y-104397682D01*
X194030500Y-104397648D01*
X194017946Y-104318386D01*
X193998477Y-104195465D01*
X193955058Y-104061836D01*
X193935220Y-104000781D01*
X193935218Y-104000778D01*
X193935218Y-104000776D01*
X193877610Y-103887715D01*
X193842287Y-103818390D01*
X193825134Y-103794781D01*
X193721971Y-103652786D01*
X193577213Y-103508028D01*
X193411613Y-103387715D01*
X193411612Y-103387714D01*
X193411610Y-103387713D01*
X193348546Y-103355580D01*
X193229223Y-103294781D01*
X193034535Y-103231523D01*
X192886483Y-103208073D01*
X192823349Y-103178143D01*
X192818201Y-103173281D01*
X192584319Y-102939398D01*
X192550834Y-102878075D01*
X192548000Y-102851717D01*
X192548000Y-89371938D01*
X192567685Y-89304899D01*
X192615704Y-89261454D01*
X192702905Y-89217024D01*
X192862146Y-89101328D01*
X193001328Y-88962146D01*
X193117024Y-88802905D01*
X193206384Y-88627525D01*
X193267209Y-88440326D01*
X193282211Y-88345606D01*
X193298000Y-88245922D01*
X193298000Y-88049077D01*
X193267209Y-87854673D01*
X193206382Y-87667470D01*
X193131336Y-87520185D01*
X193117024Y-87492095D01*
X193001328Y-87332854D01*
X192862146Y-87193672D01*
X192702905Y-87077976D01*
X192527525Y-86988616D01*
X192527524Y-86988615D01*
X192525735Y-86987704D01*
X192474939Y-86939730D01*
X192458144Y-86871909D01*
X192480681Y-86805774D01*
X192525736Y-86766734D01*
X192702641Y-86676597D01*
X192861821Y-86560944D01*
X193000944Y-86421821D01*
X193116595Y-86262643D01*
X193205918Y-86087337D01*
X193266718Y-85900216D01*
X193273484Y-85857500D01*
X191980512Y-85857500D01*
X192013425Y-85800493D01*
X192047500Y-85673326D01*
X192047500Y-85541674D01*
X192013425Y-85414507D01*
X191980512Y-85357500D01*
X193273484Y-85357500D01*
X193266718Y-85314783D01*
X193205918Y-85127662D01*
X193116595Y-84952356D01*
X193000944Y-84793178D01*
X192861822Y-84654056D01*
X192708028Y-84542317D01*
X192665363Y-84486987D01*
X192659384Y-84417373D01*
X192691990Y-84355578D01*
X192752829Y-84321221D01*
X192780913Y-84317999D01*
X192845372Y-84317999D01*
X192904983Y-84311591D01*
X193039831Y-84261296D01*
X193155046Y-84175046D01*
X193241296Y-84059831D01*
X193291591Y-83924983D01*
X193298000Y-83865373D01*
X193297999Y-82269628D01*
X193291591Y-82210017D01*
X193255544Y-82113371D01*
X193241297Y-82075171D01*
X193241293Y-82075164D01*
X193155047Y-81959955D01*
X193155044Y-81959952D01*
X193039835Y-81873706D01*
X193039828Y-81873702D01*
X192904982Y-81823408D01*
X192904983Y-81823408D01*
X192845383Y-81817001D01*
X192845381Y-81817000D01*
X192845373Y-81817000D01*
X192845365Y-81817000D01*
X192672000Y-81817000D01*
X192604961Y-81797315D01*
X192559206Y-81744511D01*
X192548000Y-81693000D01*
X192548000Y-75948957D01*
X192529993Y-75858437D01*
X192528775Y-75852312D01*
X192509551Y-75755664D01*
X192469718Y-75659500D01*
X192461564Y-75639815D01*
X192434135Y-75573593D01*
X192434134Y-75573592D01*
X192434132Y-75573586D01*
X192434128Y-75573580D01*
X192324639Y-75409717D01*
X192182186Y-75267264D01*
X192182155Y-75267235D01*
X164898793Y-47983873D01*
X164865308Y-47922550D01*
X164870292Y-47852858D01*
X164912164Y-47796925D01*
X164936378Y-47782763D01*
X165109454Y-47706343D01*
X165289182Y-47583226D01*
X165443226Y-47429182D01*
X165566343Y-47249454D01*
X165654338Y-47050164D01*
X165654377Y-47050000D01*
X165704213Y-46838109D01*
X165704213Y-46838105D01*
X165704215Y-46838099D01*
X165710500Y-46747552D01*
X165710500Y-45878711D01*
X169289500Y-45878711D01*
X169289500Y-46121288D01*
X169321161Y-46361785D01*
X169383947Y-46596104D01*
X169476773Y-46820205D01*
X169476776Y-46820212D01*
X169598064Y-47030289D01*
X169598066Y-47030292D01*
X169598067Y-47030293D01*
X169745733Y-47222736D01*
X169745739Y-47222743D01*
X169917256Y-47394260D01*
X169917263Y-47394266D01*
X169962767Y-47429182D01*
X170109711Y-47541936D01*
X170319788Y-47663224D01*
X170543900Y-47756054D01*
X170778211Y-47818838D01*
X170958586Y-47842584D01*
X171018711Y-47850500D01*
X171018712Y-47850500D01*
X171261289Y-47850500D01*
X171309388Y-47844167D01*
X171501789Y-47818838D01*
X171736100Y-47756054D01*
X171960212Y-47663224D01*
X172170289Y-47541936D01*
X172362738Y-47394265D01*
X172534265Y-47222738D01*
X172649171Y-47072989D01*
X172667568Y-47049014D01*
X172723996Y-47007811D01*
X172765944Y-47000500D01*
X176274056Y-47000500D01*
X176341095Y-47020185D01*
X176372432Y-47049014D01*
X176505733Y-47222736D01*
X176505739Y-47222743D01*
X176677256Y-47394260D01*
X176677263Y-47394266D01*
X176722767Y-47429182D01*
X176869711Y-47541936D01*
X177079788Y-47663224D01*
X177303900Y-47756054D01*
X177538211Y-47818838D01*
X177718586Y-47842584D01*
X177778711Y-47850500D01*
X177778712Y-47850500D01*
X178021289Y-47850500D01*
X178069388Y-47844167D01*
X178261789Y-47818838D01*
X178496100Y-47756054D01*
X178720212Y-47663224D01*
X178930289Y-47541936D01*
X179122738Y-47394265D01*
X179294265Y-47222738D01*
X179409171Y-47072989D01*
X179427568Y-47049014D01*
X179483996Y-47007811D01*
X179525944Y-47000500D01*
X179631459Y-47000500D01*
X183534218Y-47000500D01*
X183563658Y-47009144D01*
X183593645Y-47015668D01*
X183598660Y-47019422D01*
X183601257Y-47020185D01*
X183621899Y-47036819D01*
X183719735Y-47134655D01*
X183719749Y-47134670D01*
X183722860Y-47137781D01*
X183722861Y-47137782D01*
X183862218Y-47277139D01*
X183862219Y-47277139D01*
X183869286Y-47284206D01*
X183869285Y-47284206D01*
X183869289Y-47284209D01*
X196193181Y-59608101D01*
X196226666Y-59669424D01*
X196229500Y-59695782D01*
X196229500Y-62186037D01*
X196209815Y-62253076D01*
X196190376Y-62275350D01*
X196190788Y-62275762D01*
X196009205Y-62457345D01*
X196009201Y-62457350D01*
X195861132Y-62661151D01*
X195746760Y-62885616D01*
X195668910Y-63125214D01*
X195629500Y-63374038D01*
X195629500Y-63625961D01*
X195668910Y-63874785D01*
X195746760Y-64114383D01*
X195861132Y-64338848D01*
X195929062Y-64432347D01*
X195952542Y-64498153D01*
X195936716Y-64566207D01*
X195916426Y-64592913D01*
X195787680Y-64721659D01*
X195695645Y-64870869D01*
X195695640Y-64870880D01*
X195640494Y-65037302D01*
X195630000Y-65140013D01*
X195630000Y-65790000D01*
X196739252Y-65790000D01*
X196717482Y-65827708D01*
X196680000Y-65967591D01*
X196680000Y-66112409D01*
X196717482Y-66252292D01*
X196739252Y-66290000D01*
X195630001Y-66290000D01*
X195630001Y-66939986D01*
X195640494Y-67042696D01*
X195640494Y-67042698D01*
X195695640Y-67209119D01*
X195695645Y-67209130D01*
X195787680Y-67358340D01*
X195787683Y-67358344D01*
X195911655Y-67482316D01*
X195911659Y-67482319D01*
X196060869Y-67574354D01*
X196060880Y-67574359D01*
X196227302Y-67629505D01*
X196330019Y-67639999D01*
X196979999Y-67639999D01*
X196980000Y-67639998D01*
X196980000Y-66530747D01*
X197017708Y-66552518D01*
X197157591Y-66590000D01*
X197302409Y-66590000D01*
X197442292Y-66552518D01*
X197480000Y-66530747D01*
X197480000Y-67639999D01*
X198129972Y-67639999D01*
X198129986Y-67639998D01*
X198232696Y-67629505D01*
X198232698Y-67629505D01*
X198399119Y-67574359D01*
X198399130Y-67574354D01*
X198548340Y-67482319D01*
X198548344Y-67482316D01*
X198672316Y-67358344D01*
X198672319Y-67358340D01*
X198764354Y-67209130D01*
X198764359Y-67209119D01*
X198819505Y-67042697D01*
X198829999Y-66939986D01*
X198829999Y-66482781D01*
X198849683Y-66415742D01*
X198902487Y-66369987D01*
X198971646Y-66360043D01*
X199035202Y-66389068D01*
X199055917Y-66414985D01*
X199057221Y-66414114D01*
X199148210Y-66550288D01*
X199148213Y-66550292D01*
X199259707Y-66661786D01*
X199259711Y-66661789D01*
X199390814Y-66749390D01*
X199390827Y-66749397D01*
X199536498Y-66809735D01*
X199536503Y-66809737D01*
X199691153Y-66840499D01*
X199691156Y-66840500D01*
X199691158Y-66840500D01*
X199848844Y-66840500D01*
X199848845Y-66840499D01*
X200003497Y-66809737D01*
X200149179Y-66749394D01*
X200280289Y-66661789D01*
X200391789Y-66550289D01*
X200479394Y-66419179D01*
X200539737Y-66273497D01*
X200570500Y-66118842D01*
X200570500Y-65961158D01*
X200570500Y-65961155D01*
X200570499Y-65961153D01*
X200539738Y-65806510D01*
X200539737Y-65806503D01*
X200532901Y-65790000D01*
X200479397Y-65660827D01*
X200479390Y-65660814D01*
X200391789Y-65529711D01*
X200391786Y-65529707D01*
X200280292Y-65418213D01*
X200280288Y-65418210D01*
X200149185Y-65330609D01*
X200149172Y-65330602D01*
X200003501Y-65270264D01*
X200003489Y-65270261D01*
X199848845Y-65239500D01*
X199848842Y-65239500D01*
X199691158Y-65239500D01*
X199691155Y-65239500D01*
X199536510Y-65270261D01*
X199536498Y-65270264D01*
X199390827Y-65330602D01*
X199390814Y-65330609D01*
X199259711Y-65418210D01*
X199259707Y-65418213D01*
X199148213Y-65529707D01*
X199148210Y-65529711D01*
X199057221Y-65665886D01*
X199054886Y-65664326D01*
X199014294Y-65705573D01*
X198946141Y-65720970D01*
X198880484Y-65697077D01*
X198838167Y-65641479D01*
X198829999Y-65597219D01*
X198829999Y-65140028D01*
X198829998Y-65140012D01*
X198819505Y-65037303D01*
X198819505Y-65037301D01*
X198764359Y-64870880D01*
X198764354Y-64870869D01*
X198672319Y-64721659D01*
X198672316Y-64721655D01*
X198543574Y-64592913D01*
X198510089Y-64531590D01*
X198515073Y-64461898D01*
X198530934Y-64432349D01*
X198598870Y-64338845D01*
X198713241Y-64114379D01*
X198791090Y-63874785D01*
X198796357Y-63841531D01*
X198826286Y-63778396D01*
X198885597Y-63741464D01*
X198955460Y-63742462D01*
X199013692Y-63781071D01*
X199033391Y-63813476D01*
X199060602Y-63879173D01*
X199060609Y-63879185D01*
X199148210Y-64010288D01*
X199148213Y-64010292D01*
X199259707Y-64121786D01*
X199259711Y-64121789D01*
X199390814Y-64209390D01*
X199390827Y-64209397D01*
X199536498Y-64269735D01*
X199536503Y-64269737D01*
X199691153Y-64300499D01*
X199691156Y-64300500D01*
X199691158Y-64300500D01*
X199848844Y-64300500D01*
X199848845Y-64300499D01*
X200003497Y-64269737D01*
X200149179Y-64209394D01*
X200280289Y-64121789D01*
X200391789Y-64010289D01*
X200479394Y-63879179D01*
X200539737Y-63733497D01*
X200570500Y-63578842D01*
X200570500Y-63421158D01*
X200570500Y-63421155D01*
X200570499Y-63421153D01*
X200539738Y-63266510D01*
X200539737Y-63266503D01*
X200509944Y-63194576D01*
X200479397Y-63120827D01*
X200479390Y-63120814D01*
X200391789Y-62989711D01*
X200391786Y-62989707D01*
X200280292Y-62878213D01*
X200280288Y-62878210D01*
X200149185Y-62790609D01*
X200149172Y-62790602D01*
X200003501Y-62730264D01*
X200003489Y-62730261D01*
X199848845Y-62699500D01*
X199848842Y-62699500D01*
X199691158Y-62699500D01*
X199691155Y-62699500D01*
X199536510Y-62730261D01*
X199536498Y-62730264D01*
X199390827Y-62790602D01*
X199390814Y-62790609D01*
X199259711Y-62878210D01*
X199259707Y-62878213D01*
X199148213Y-62989707D01*
X199148210Y-62989711D01*
X199060609Y-63120814D01*
X199060602Y-63120827D01*
X199033391Y-63186523D01*
X198989550Y-63240927D01*
X198923256Y-63262992D01*
X198855557Y-63245713D01*
X198807946Y-63194576D01*
X198796357Y-63158469D01*
X198796103Y-63156866D01*
X198791090Y-63125215D01*
X198713241Y-62885621D01*
X198713239Y-62885618D01*
X198713239Y-62885616D01*
X198664826Y-62790602D01*
X198598870Y-62661155D01*
X198579952Y-62635117D01*
X198450798Y-62457350D01*
X198450794Y-62457345D01*
X198269212Y-62275762D01*
X198270285Y-62274688D01*
X198235774Y-62221815D01*
X198230500Y-62186037D01*
X198230500Y-59131458D01*
X198230499Y-59131457D01*
X198204196Y-58999219D01*
X198204196Y-58999216D01*
X198192053Y-58938172D01*
X198192052Y-58938165D01*
X198116632Y-58756086D01*
X198116631Y-58756085D01*
X198116628Y-58756079D01*
X198007140Y-58592219D01*
X198007137Y-58592215D01*
X187710201Y-48295280D01*
X187676716Y-48233957D01*
X187681700Y-48164265D01*
X187723572Y-48108332D01*
X187789036Y-48083915D01*
X187830475Y-48089094D01*
X187830585Y-48088582D01*
X187836494Y-48089847D01*
X187836895Y-48089897D01*
X187837202Y-48089999D01*
X187939990Y-48100500D01*
X187939995Y-48100500D01*
X189740005Y-48100500D01*
X189740010Y-48100500D01*
X189842798Y-48089999D01*
X190009335Y-48034814D01*
X190158656Y-47942712D01*
X190282712Y-47818656D01*
X190374814Y-47669335D01*
X190429999Y-47502798D01*
X190440500Y-47400010D01*
X190440500Y-46374071D01*
X197400000Y-46374071D01*
X197400000Y-46625928D01*
X197439397Y-46874669D01*
X197517219Y-47114184D01*
X197631557Y-47338583D01*
X197705748Y-47440697D01*
X197705748Y-47440698D01*
X198476212Y-46670234D01*
X198487482Y-46712292D01*
X198559890Y-46837708D01*
X198662292Y-46940110D01*
X198787708Y-47012518D01*
X198829765Y-47023787D01*
X198059300Y-47794250D01*
X198161416Y-47868442D01*
X198385815Y-47982780D01*
X198625330Y-48060602D01*
X198874072Y-48100000D01*
X199125928Y-48100000D01*
X199374669Y-48060602D01*
X199614184Y-47982780D01*
X199838575Y-47868446D01*
X199838581Y-47868442D01*
X199940697Y-47794250D01*
X199940698Y-47794250D01*
X199170234Y-47023787D01*
X199212292Y-47012518D01*
X199337708Y-46940110D01*
X199440110Y-46837708D01*
X199512518Y-46712292D01*
X199523787Y-46670235D01*
X200294250Y-47440698D01*
X200294250Y-47440697D01*
X200368442Y-47338581D01*
X200368446Y-47338575D01*
X200482780Y-47114184D01*
X200560602Y-46874669D01*
X200600000Y-46625928D01*
X200600000Y-46374071D01*
X200560602Y-46125330D01*
X200482780Y-45885815D01*
X200368442Y-45661416D01*
X200294250Y-45559301D01*
X200294250Y-45559300D01*
X199523787Y-46329764D01*
X199512518Y-46287708D01*
X199440110Y-46162292D01*
X199337708Y-46059890D01*
X199212292Y-45987482D01*
X199170232Y-45976212D01*
X199940698Y-45205748D01*
X199838583Y-45131557D01*
X199614184Y-45017219D01*
X199374669Y-44939397D01*
X199125928Y-44900000D01*
X198874072Y-44900000D01*
X198625330Y-44939397D01*
X198385815Y-45017219D01*
X198161413Y-45131559D01*
X198059301Y-45205747D01*
X198059300Y-45205748D01*
X198829765Y-45976212D01*
X198787708Y-45987482D01*
X198662292Y-46059890D01*
X198559890Y-46162292D01*
X198487482Y-46287708D01*
X198476212Y-46329765D01*
X197705748Y-45559300D01*
X197705747Y-45559301D01*
X197631559Y-45661413D01*
X197517219Y-45885815D01*
X197439397Y-46125330D01*
X197400000Y-46374071D01*
X190440500Y-46374071D01*
X190440500Y-45599990D01*
X190429999Y-45497202D01*
X190374814Y-45330665D01*
X190282712Y-45181344D01*
X190158656Y-45057288D01*
X190053114Y-44992189D01*
X190009337Y-44965187D01*
X190009332Y-44965185D01*
X189966482Y-44950986D01*
X189842798Y-44910001D01*
X189842796Y-44910000D01*
X189740017Y-44899500D01*
X189740010Y-44899500D01*
X187939990Y-44899500D01*
X187939982Y-44899500D01*
X187837203Y-44910000D01*
X187837202Y-44910001D01*
X187754669Y-44937349D01*
X187670667Y-44965185D01*
X187670662Y-44965187D01*
X187521342Y-45057289D01*
X187397289Y-45181342D01*
X187305187Y-45330662D01*
X187305186Y-45330665D01*
X187277403Y-45414505D01*
X187237632Y-45471949D01*
X187173117Y-45498772D01*
X187159699Y-45499500D01*
X184965782Y-45499500D01*
X184936341Y-45490855D01*
X184906355Y-45484332D01*
X184901339Y-45480577D01*
X184898743Y-45479815D01*
X184878101Y-45463181D01*
X184781479Y-45366559D01*
X184781459Y-45366537D01*
X184637785Y-45222863D01*
X184637781Y-45222860D01*
X184473920Y-45113371D01*
X184473907Y-45113364D01*
X184345719Y-45060268D01*
X184345717Y-45060267D01*
X184338524Y-45057288D01*
X184291836Y-45037949D01*
X184195188Y-45018724D01*
X184190870Y-45017865D01*
X184190866Y-45017864D01*
X184098544Y-44999500D01*
X184098541Y-44999500D01*
X179828541Y-44999500D01*
X179525944Y-44999500D01*
X179458905Y-44979815D01*
X179427568Y-44950986D01*
X179294266Y-44777263D01*
X179294260Y-44777256D01*
X179122743Y-44605739D01*
X179122736Y-44605733D01*
X178930293Y-44458067D01*
X178930292Y-44458066D01*
X178930289Y-44458064D01*
X178720212Y-44336776D01*
X178720205Y-44336773D01*
X178496104Y-44243947D01*
X178261785Y-44181161D01*
X178021289Y-44149500D01*
X178021288Y-44149500D01*
X177778712Y-44149500D01*
X177778711Y-44149500D01*
X177538214Y-44181161D01*
X177303895Y-44243947D01*
X177079794Y-44336773D01*
X177079785Y-44336777D01*
X176869706Y-44458067D01*
X176677263Y-44605733D01*
X176677256Y-44605739D01*
X176505739Y-44777256D01*
X176505733Y-44777263D01*
X176372432Y-44950986D01*
X176316004Y-44992189D01*
X176274056Y-44999500D01*
X172765944Y-44999500D01*
X172698905Y-44979815D01*
X172667568Y-44950986D01*
X172534266Y-44777263D01*
X172534260Y-44777256D01*
X172362743Y-44605739D01*
X172362736Y-44605733D01*
X172170293Y-44458067D01*
X172170292Y-44458066D01*
X172170289Y-44458064D01*
X171960212Y-44336776D01*
X171960205Y-44336773D01*
X171736104Y-44243947D01*
X171501785Y-44181161D01*
X171261289Y-44149500D01*
X171261288Y-44149500D01*
X171018712Y-44149500D01*
X171018711Y-44149500D01*
X170778214Y-44181161D01*
X170543895Y-44243947D01*
X170319794Y-44336773D01*
X170319785Y-44336777D01*
X170109706Y-44458067D01*
X169917263Y-44605733D01*
X169917256Y-44605739D01*
X169745739Y-44777256D01*
X169745733Y-44777263D01*
X169598067Y-44969706D01*
X169598064Y-44969710D01*
X169598064Y-44969711D01*
X169585086Y-44992189D01*
X169476777Y-45179785D01*
X169476773Y-45179794D01*
X169383947Y-45403895D01*
X169321161Y-45638214D01*
X169289500Y-45878711D01*
X165710500Y-45878711D01*
X165710500Y-45252448D01*
X165708446Y-45222863D01*
X165707258Y-45205747D01*
X165704215Y-45161901D01*
X165704213Y-45161895D01*
X165704213Y-45161890D01*
X165654340Y-44949843D01*
X165654339Y-44949841D01*
X165654338Y-44949836D01*
X165566343Y-44750546D01*
X165443226Y-44570818D01*
X165443221Y-44570812D01*
X165289187Y-44416778D01*
X165289181Y-44416773D01*
X165256646Y-44394486D01*
X165109454Y-44293657D01*
X164910164Y-44205662D01*
X164910161Y-44205661D01*
X164910156Y-44205659D01*
X164698109Y-44155786D01*
X164698093Y-44155784D01*
X164607556Y-44149500D01*
X164607552Y-44149500D01*
X163112448Y-44149500D01*
X163112444Y-44149500D01*
X163021906Y-44155784D01*
X163021890Y-44155786D01*
X162809843Y-44205659D01*
X162809836Y-44205662D01*
X162610550Y-44293655D01*
X162610549Y-44293655D01*
X162610546Y-44293657D01*
X162547605Y-44336773D01*
X162430818Y-44416773D01*
X162430812Y-44416778D01*
X162276778Y-44570812D01*
X162276773Y-44570818D01*
X162252855Y-44605735D01*
X162153657Y-44750546D01*
X162076368Y-44925587D01*
X162031284Y-44978962D01*
X161964498Y-44999490D01*
X161962935Y-44999500D01*
X158997065Y-44999500D01*
X158930026Y-44979815D01*
X158884271Y-44927011D01*
X158883662Y-44925657D01*
X158806343Y-44750546D01*
X158683226Y-44570818D01*
X158683221Y-44570812D01*
X158529187Y-44416778D01*
X158529181Y-44416773D01*
X158496646Y-44394486D01*
X158349454Y-44293657D01*
X158150164Y-44205662D01*
X158150161Y-44205661D01*
X158150156Y-44205659D01*
X157938109Y-44155786D01*
X157938093Y-44155784D01*
X157847556Y-44149500D01*
X157847552Y-44149500D01*
X156352448Y-44149500D01*
X156352444Y-44149500D01*
X156261906Y-44155784D01*
X156261890Y-44155786D01*
X156049843Y-44205659D01*
X156049836Y-44205662D01*
X155850550Y-44293655D01*
X155850549Y-44293655D01*
X155850546Y-44293657D01*
X155787605Y-44336773D01*
X155670818Y-44416773D01*
X155670812Y-44416778D01*
X155516778Y-44570812D01*
X155516773Y-44570818D01*
X155492855Y-44605735D01*
X155393657Y-44750546D01*
X155393655Y-44750549D01*
X155393655Y-44750550D01*
X155305662Y-44949836D01*
X155305659Y-44949843D01*
X155255786Y-45161890D01*
X155255784Y-45161906D01*
X155249500Y-45252444D01*
X155249500Y-46747555D01*
X155255784Y-46838093D01*
X155255786Y-46838109D01*
X155305659Y-47050156D01*
X155305661Y-47050161D01*
X155305662Y-47050164D01*
X155393657Y-47249454D01*
X155492852Y-47394260D01*
X155516773Y-47429181D01*
X155516778Y-47429187D01*
X155670812Y-47583221D01*
X155670818Y-47583226D01*
X155850546Y-47706343D01*
X156049836Y-47794338D01*
X156049841Y-47794339D01*
X156049843Y-47794340D01*
X156261890Y-47844213D01*
X156261895Y-47844213D01*
X156261901Y-47844215D01*
X156312204Y-47847706D01*
X156352444Y-47850500D01*
X156352448Y-47850500D01*
X157847556Y-47850500D01*
X157883770Y-47847986D01*
X157938099Y-47844215D01*
X157938105Y-47844213D01*
X157938109Y-47844213D01*
X158150156Y-47794340D01*
X158150156Y-47794339D01*
X158150164Y-47794338D01*
X158349454Y-47706343D01*
X158529182Y-47583226D01*
X158683226Y-47429182D01*
X158806343Y-47249454D01*
X158883631Y-47074412D01*
X158928716Y-47021038D01*
X158995502Y-47000510D01*
X158997065Y-47000500D01*
X161962935Y-47000500D01*
X162029974Y-47020185D01*
X162075729Y-47072989D01*
X162076337Y-47074342D01*
X162153657Y-47249454D01*
X162252852Y-47394260D01*
X162276773Y-47429181D01*
X162276778Y-47429187D01*
X162430812Y-47583221D01*
X162430818Y-47583226D01*
X162610546Y-47706343D01*
X162785587Y-47783631D01*
X162838962Y-47828715D01*
X162859490Y-47895501D01*
X162859500Y-47897064D01*
X162859500Y-48458541D01*
X162859500Y-48458543D01*
X162859499Y-48458543D01*
X162897947Y-48651829D01*
X162897950Y-48651839D01*
X162973364Y-48833907D01*
X162973371Y-48833920D01*
X163082860Y-48997781D01*
X163082863Y-48997785D01*
X163226537Y-49141459D01*
X163226559Y-49141479D01*
X190510681Y-76425601D01*
X190544166Y-76486924D01*
X190547000Y-76513282D01*
X190547000Y-81693000D01*
X190527315Y-81760039D01*
X190474511Y-81805794D01*
X190423001Y-81817000D01*
X190249630Y-81817000D01*
X190249623Y-81817001D01*
X190190016Y-81823408D01*
X190055171Y-81873702D01*
X190055164Y-81873706D01*
X189939955Y-81959952D01*
X189939952Y-81959955D01*
X189853706Y-82075164D01*
X189853702Y-82075171D01*
X189803408Y-82210017D01*
X189797001Y-82269616D01*
X189797001Y-82269623D01*
X189797000Y-82269635D01*
X189797000Y-83865370D01*
X189797001Y-83865376D01*
X189803408Y-83924983D01*
X189853702Y-84059828D01*
X189853706Y-84059835D01*
X189939952Y-84175044D01*
X189939955Y-84175047D01*
X190055164Y-84261293D01*
X190055171Y-84261297D01*
X190190017Y-84311591D01*
X190190016Y-84311591D01*
X190196944Y-84312335D01*
X190249627Y-84318000D01*
X190314085Y-84317999D01*
X190381122Y-84337683D01*
X190426878Y-84390486D01*
X190436822Y-84459644D01*
X190407798Y-84523200D01*
X190386971Y-84542316D01*
X190233180Y-84654053D01*
X190094055Y-84793178D01*
X189978404Y-84952356D01*
X189889081Y-85127662D01*
X189828281Y-85314783D01*
X189821516Y-85357500D01*
X191114488Y-85357500D01*
X191081575Y-85414507D01*
X191047500Y-85541674D01*
X191047500Y-85673326D01*
X191081575Y-85800493D01*
X191114488Y-85857500D01*
X189821516Y-85857500D01*
X189828281Y-85900216D01*
X189889081Y-86087337D01*
X189978404Y-86262643D01*
X190094055Y-86421821D01*
X190233178Y-86560944D01*
X190392356Y-86676595D01*
X190569264Y-86766734D01*
X190620060Y-86814708D01*
X190636855Y-86882529D01*
X190614318Y-86948664D01*
X190569264Y-86987704D01*
X190392094Y-87077976D01*
X190301241Y-87143985D01*
X190232854Y-87193672D01*
X190232852Y-87193674D01*
X190232851Y-87193674D01*
X190093674Y-87332851D01*
X190093674Y-87332852D01*
X190093672Y-87332854D01*
X190053502Y-87388143D01*
X189977976Y-87492094D01*
X189888617Y-87667470D01*
X189827790Y-87854673D01*
X189797000Y-88049077D01*
X189797000Y-88245922D01*
X189827790Y-88440326D01*
X189888617Y-88627529D01*
X189948781Y-88745606D01*
X189977976Y-88802905D01*
X190093672Y-88962146D01*
X190232854Y-89101328D01*
X190322751Y-89166642D01*
X190392090Y-89217021D01*
X190392092Y-89217022D01*
X190392095Y-89217024D01*
X190479295Y-89261454D01*
X190530090Y-89309427D01*
X190547000Y-89371938D01*
X190547000Y-102375500D01*
X190527315Y-102442539D01*
X190474511Y-102488294D01*
X190423000Y-102499500D01*
X181605762Y-102499500D01*
X181538723Y-102479815D01*
X181532877Y-102475818D01*
X181411613Y-102387715D01*
X181411612Y-102387714D01*
X181411610Y-102387713D01*
X181229219Y-102294780D01*
X181034534Y-102231523D01*
X181034531Y-102231522D01*
X181034532Y-102231522D01*
X180886484Y-102208073D01*
X180823350Y-102178143D01*
X180818202Y-102173281D01*
X171673209Y-93028289D01*
X171673206Y-93028285D01*
X171673206Y-93028286D01*
X171666139Y-93021219D01*
X171666139Y-93021218D01*
X171526782Y-92881861D01*
X171526781Y-92881860D01*
X171526780Y-92881859D01*
X171362920Y-92772371D01*
X171362911Y-92772366D01*
X171290315Y-92742296D01*
X171234165Y-92719038D01*
X171180836Y-92696949D01*
X171180832Y-92696948D01*
X171180828Y-92696946D01*
X171084188Y-92677724D01*
X170987544Y-92658500D01*
X170987541Y-92658500D01*
X151432459Y-92658500D01*
X151432455Y-92658500D01*
X151335812Y-92677724D01*
X151239167Y-92696947D01*
X151239161Y-92696949D01*
X151185834Y-92719037D01*
X151185834Y-92719038D01*
X151140315Y-92737892D01*
X151057089Y-92772366D01*
X151057079Y-92772371D01*
X150893219Y-92881859D01*
X150823540Y-92951538D01*
X150753861Y-93021218D01*
X150753858Y-93021221D01*
X150451651Y-93323427D01*
X150390328Y-93356912D01*
X150360834Y-93358919D01*
X150360834Y-93359500D01*
X150355962Y-93359500D01*
X150104038Y-93359500D01*
X149979626Y-93379205D01*
X149855214Y-93398910D01*
X149615616Y-93476760D01*
X149391151Y-93591132D01*
X149187350Y-93739201D01*
X149187345Y-93739205D01*
X149005762Y-93920789D01*
X149004687Y-93919714D01*
X148951820Y-93954225D01*
X148916038Y-93959500D01*
X148575822Y-93959500D01*
X148382537Y-93997947D01*
X148382529Y-93997949D01*
X148314604Y-94026085D01*
X148200449Y-94073369D01*
X148036588Y-94182857D01*
X148036580Y-94182863D01*
X144230246Y-97989199D01*
X143092220Y-99127225D01*
X143092218Y-99127227D01*
X143052562Y-99166883D01*
X142952859Y-99266585D01*
X142843371Y-99430445D01*
X142843364Y-99430458D01*
X142767950Y-99612526D01*
X142767947Y-99612536D01*
X142729500Y-99805822D01*
X142729500Y-117034217D01*
X142709815Y-117101256D01*
X142693181Y-117121898D01*
X141851899Y-117963181D01*
X141790576Y-117996666D01*
X141764218Y-117999500D01*
X136695782Y-117999500D01*
X136628743Y-117979815D01*
X136608101Y-117963181D01*
X135792661Y-117147741D01*
X135759176Y-117086418D01*
X135764160Y-117016726D01*
X135806032Y-116960793D01*
X135871496Y-116936376D01*
X135918656Y-116942128D01*
X136028435Y-116977798D01*
X136068881Y-116990940D01*
X136255514Y-117020500D01*
X136255519Y-117020500D01*
X136444486Y-117020500D01*
X136631118Y-116990940D01*
X136632623Y-116990451D01*
X136810832Y-116932547D01*
X136979199Y-116846760D01*
X137132073Y-116735690D01*
X137265690Y-116602073D01*
X137376760Y-116449199D01*
X137462547Y-116280832D01*
X137520940Y-116101118D01*
X137521625Y-116096788D01*
X137551551Y-116033653D01*
X137556401Y-116028517D01*
X140317139Y-113267782D01*
X140364341Y-113197139D01*
X140426632Y-113103914D01*
X140502051Y-112921835D01*
X140522558Y-112818743D01*
X140540500Y-112728543D01*
X140540500Y-87624500D01*
X140560185Y-87557461D01*
X140612989Y-87511706D01*
X140664500Y-87500500D01*
X162328542Y-87500500D01*
X162370799Y-87492094D01*
X162425188Y-87481275D01*
X162521836Y-87462051D01*
X162575165Y-87439961D01*
X162703914Y-87386632D01*
X162867782Y-87277139D01*
X163007139Y-87137782D01*
X163007140Y-87137779D01*
X163014206Y-87130714D01*
X163014209Y-87130710D01*
X169137778Y-81007141D01*
X169137782Y-81007139D01*
X169277139Y-80867782D01*
X169386632Y-80703914D01*
X169462051Y-80521835D01*
X169500500Y-80328541D01*
X169500500Y-72323898D01*
X169502883Y-72299706D01*
X169504448Y-72291837D01*
X169525500Y-72186003D01*
X169525500Y-71533997D01*
X169486091Y-71335873D01*
X169408786Y-71149244D01*
X169408784Y-71149241D01*
X169408782Y-71149237D01*
X169296558Y-70981281D01*
X169153718Y-70838441D01*
X168985762Y-70726217D01*
X168985752Y-70726212D01*
X168799127Y-70648909D01*
X168799119Y-70648907D01*
X168601007Y-70609500D01*
X168601003Y-70609500D01*
X168398997Y-70609500D01*
X168398992Y-70609500D01*
X168200880Y-70648907D01*
X168200872Y-70648909D01*
X168014244Y-70726213D01*
X167933891Y-70779904D01*
X167867213Y-70800782D01*
X167799833Y-70782297D01*
X167796109Y-70779904D01*
X167715755Y-70726213D01*
X167529127Y-70648909D01*
X167529119Y-70648907D01*
X167331007Y-70609500D01*
X167331003Y-70609500D01*
X167128997Y-70609500D01*
X167128992Y-70609500D01*
X166930880Y-70648907D01*
X166930868Y-70648910D01*
X166849661Y-70682547D01*
X166780191Y-70690016D01*
X166735140Y-70670405D01*
X166734872Y-70670897D01*
X166729374Y-70667894D01*
X166727895Y-70667251D01*
X166727086Y-70666645D01*
X166592379Y-70616403D01*
X166592372Y-70616401D01*
X166532844Y-70610000D01*
X166210000Y-70610000D01*
X166210000Y-71494134D01*
X166207617Y-71518326D01*
X166204500Y-71533995D01*
X166204500Y-71574170D01*
X166190255Y-71559925D01*
X166104745Y-71510556D01*
X166009370Y-71485000D01*
X165910630Y-71485000D01*
X165815255Y-71510556D01*
X165729745Y-71559925D01*
X165710000Y-71579670D01*
X165710000Y-70610000D01*
X165387155Y-70610000D01*
X165327627Y-70616401D01*
X165327620Y-70616403D01*
X165192913Y-70666645D01*
X165192906Y-70666649D01*
X165077812Y-70752809D01*
X165077809Y-70752812D01*
X164991649Y-70867906D01*
X164991645Y-70867913D01*
X164941403Y-71002620D01*
X164941401Y-71002627D01*
X164935000Y-71062155D01*
X164935000Y-71610000D01*
X165679670Y-71610000D01*
X165659925Y-71629745D01*
X165610556Y-71715255D01*
X165585000Y-71810630D01*
X165585000Y-71909370D01*
X165610556Y-72004745D01*
X165659925Y-72090255D01*
X165679670Y-72110000D01*
X164935000Y-72110000D01*
X164935000Y-72657844D01*
X164941401Y-72717372D01*
X164941403Y-72717379D01*
X164991645Y-72852086D01*
X164991649Y-72852093D01*
X165077809Y-72967187D01*
X165077812Y-72967190D01*
X165192906Y-73053350D01*
X165192913Y-73053354D01*
X165327620Y-73103596D01*
X165327627Y-73103598D01*
X165387155Y-73109999D01*
X165387172Y-73110000D01*
X165710000Y-73110000D01*
X165710000Y-72140330D01*
X165729745Y-72160075D01*
X165815255Y-72209444D01*
X165910630Y-72235000D01*
X166009370Y-72235000D01*
X166104745Y-72209444D01*
X166190255Y-72160075D01*
X166204500Y-72145830D01*
X166204500Y-72186002D01*
X166207617Y-72201671D01*
X166210000Y-72225865D01*
X166210000Y-73161362D01*
X166206542Y-73161362D01*
X166203359Y-73205873D01*
X166174858Y-73250220D01*
X163801899Y-75623181D01*
X163740576Y-75656666D01*
X163714218Y-75659500D01*
X160355782Y-75659500D01*
X160288743Y-75639815D01*
X160268101Y-75623181D01*
X156266819Y-71621899D01*
X156233334Y-71560576D01*
X156230500Y-71534218D01*
X156230500Y-69535761D01*
X156250185Y-69468722D01*
X156254165Y-69462899D01*
X156342287Y-69341610D01*
X156435220Y-69159219D01*
X156498477Y-68964534D01*
X156530500Y-68762352D01*
X156530500Y-68557648D01*
X156498477Y-68355466D01*
X156435220Y-68160781D01*
X156435218Y-68160778D01*
X156435218Y-68160776D01*
X156393566Y-68079031D01*
X156342287Y-67978390D01*
X156323652Y-67952741D01*
X156221971Y-67812786D01*
X156077213Y-67668028D01*
X155911613Y-67547715D01*
X155911612Y-67547714D01*
X155911610Y-67547713D01*
X155854653Y-67518691D01*
X155729223Y-67454781D01*
X155534534Y-67391522D01*
X155359995Y-67363878D01*
X155332352Y-67359500D01*
X155127648Y-67359500D01*
X155103329Y-67363351D01*
X154925465Y-67391522D01*
X154730776Y-67454781D01*
X154548386Y-67547715D01*
X154382786Y-67668028D01*
X154238028Y-67812786D01*
X154117715Y-67978386D01*
X154024781Y-68160776D01*
X153961522Y-68355465D01*
X153929500Y-68557648D01*
X153929500Y-68762351D01*
X153961522Y-68964534D01*
X154024781Y-69159223D01*
X154117713Y-69341610D01*
X154205819Y-69462877D01*
X154229298Y-69528681D01*
X154229500Y-69535761D01*
X154229500Y-72098544D01*
X154267947Y-72291833D01*
X154267949Y-72291837D01*
X154290038Y-72345164D01*
X154343366Y-72473911D01*
X154343371Y-72473920D01*
X154452860Y-72637781D01*
X154452863Y-72637785D01*
X154596537Y-72781459D01*
X154596559Y-72781479D01*
X159109735Y-77294655D01*
X159109764Y-77294686D01*
X159252214Y-77437136D01*
X159252218Y-77437139D01*
X159416079Y-77546628D01*
X159416092Y-77546635D01*
X159544833Y-77599961D01*
X159598159Y-77622049D01*
X159598164Y-77622051D01*
X159670598Y-77636459D01*
X159700813Y-77642469D01*
X159791456Y-77660500D01*
X159791459Y-77660500D01*
X164278543Y-77660500D01*
X164337585Y-77648755D01*
X164399402Y-77636459D01*
X164471836Y-77622051D01*
X164525165Y-77599961D01*
X164653914Y-77546632D01*
X164817782Y-77437139D01*
X164957139Y-77297782D01*
X164957139Y-77297780D01*
X164967347Y-77287573D01*
X164967348Y-77287570D01*
X167287821Y-74967098D01*
X167349142Y-74933615D01*
X167418834Y-74938599D01*
X167474767Y-74980471D01*
X167499184Y-75045935D01*
X167499500Y-75054781D01*
X167499500Y-79764218D01*
X167479815Y-79831257D01*
X167463181Y-79851899D01*
X161851899Y-85463181D01*
X161790576Y-85496666D01*
X161764218Y-85499500D01*
X140415762Y-85499500D01*
X140348723Y-85479815D01*
X140342877Y-85475818D01*
X140221613Y-85387715D01*
X140221612Y-85387714D01*
X140221610Y-85387713D01*
X140161896Y-85357287D01*
X140039223Y-85294781D01*
X139844534Y-85231522D01*
X139669995Y-85203878D01*
X139642352Y-85199500D01*
X139437648Y-85199500D01*
X139413329Y-85203351D01*
X139235465Y-85231522D01*
X139040776Y-85294781D01*
X138858386Y-85387715D01*
X138692786Y-85508028D01*
X138548028Y-85652786D01*
X138427715Y-85818386D01*
X138334781Y-86000776D01*
X138271522Y-86195465D01*
X138239500Y-86397648D01*
X138239500Y-86602351D01*
X138271522Y-86804534D01*
X138334781Y-86999223D01*
X138401776Y-87130706D01*
X138427713Y-87181610D01*
X138515819Y-87302877D01*
X138539298Y-87368681D01*
X138539500Y-87375761D01*
X138539500Y-112164217D01*
X138519815Y-112231256D01*
X138503181Y-112251898D01*
X136141497Y-114613581D01*
X136080174Y-114647066D01*
X136073223Y-114648372D01*
X136068884Y-114649059D01*
X135889165Y-114707454D01*
X135720800Y-114793240D01*
X135646947Y-114846898D01*
X135567927Y-114904310D01*
X135567925Y-114904312D01*
X135567924Y-114904312D01*
X135434312Y-115037924D01*
X135434312Y-115037925D01*
X135434310Y-115037927D01*
X135386610Y-115103579D01*
X135323240Y-115190800D01*
X135237454Y-115359163D01*
X135179059Y-115538881D01*
X135149500Y-115725513D01*
X135149500Y-115914486D01*
X135179059Y-116101118D01*
X135193691Y-116146148D01*
X135223661Y-116238386D01*
X135227870Y-116251338D01*
X135229865Y-116321179D01*
X135193785Y-116381012D01*
X135131084Y-116411841D01*
X135061670Y-116403877D01*
X135022258Y-116377338D01*
X132766819Y-114121899D01*
X132733334Y-114060576D01*
X132730500Y-114034218D01*
X132730500Y-110465782D01*
X132750185Y-110398743D01*
X132766819Y-110378101D01*
X133908102Y-109236819D01*
X133969425Y-109203334D01*
X133995783Y-109200500D01*
X135187680Y-109200500D01*
X135254719Y-109220185D01*
X135286948Y-109250191D01*
X135292454Y-109257546D01*
X135292457Y-109257548D01*
X135407664Y-109343793D01*
X135407671Y-109343797D01*
X135542517Y-109394091D01*
X135542516Y-109394091D01*
X135549444Y-109394835D01*
X135602127Y-109400500D01*
X137097872Y-109400499D01*
X137157483Y-109394091D01*
X137292331Y-109343796D01*
X137407546Y-109257546D01*
X137493796Y-109142331D01*
X137544091Y-109007483D01*
X137550500Y-108947873D01*
X137550499Y-107452128D01*
X137544091Y-107392517D01*
X137536629Y-107372511D01*
X137493796Y-107257669D01*
X137493793Y-107257664D01*
X137407547Y-107142455D01*
X137407544Y-107142452D01*
X137292335Y-107056206D01*
X137292328Y-107056202D01*
X137157482Y-107005908D01*
X137157483Y-107005908D01*
X137097883Y-106999501D01*
X137097881Y-106999500D01*
X137097873Y-106999500D01*
X137097865Y-106999500D01*
X136615782Y-106999500D01*
X136548743Y-106979815D01*
X136528101Y-106963181D01*
X132956819Y-103391899D01*
X132923334Y-103330576D01*
X132920500Y-103304218D01*
X132920500Y-87712230D01*
X132940185Y-87645191D01*
X132956819Y-87624549D01*
X132956868Y-87624500D01*
X133062712Y-87518656D01*
X133154814Y-87369334D01*
X133209999Y-87202797D01*
X133220500Y-87100009D01*
X133220499Y-85899992D01*
X133209999Y-85797203D01*
X133154814Y-85630666D01*
X133062712Y-85481344D01*
X132938656Y-85357288D01*
X132837314Y-85294780D01*
X132789336Y-85265187D01*
X132789331Y-85265185D01*
X132787862Y-85264698D01*
X132622797Y-85210001D01*
X132622795Y-85210000D01*
X132520010Y-85199500D01*
X131319998Y-85199500D01*
X131319981Y-85199501D01*
X131217203Y-85210000D01*
X131217200Y-85210001D01*
X131050668Y-85265185D01*
X131050663Y-85265187D01*
X130901345Y-85357287D01*
X130795450Y-85463182D01*
X130734127Y-85496666D01*
X130707769Y-85499500D01*
X110401455Y-85499500D01*
X110304812Y-85518724D01*
X110208167Y-85537947D01*
X110208161Y-85537949D01*
X110154834Y-85560037D01*
X110154834Y-85560038D01*
X110109315Y-85578892D01*
X110026089Y-85613366D01*
X110026079Y-85613371D01*
X109893458Y-85701987D01*
X109893457Y-85701988D01*
X109862215Y-85722862D01*
X109862214Y-85722863D01*
X106121899Y-89463181D01*
X106060576Y-89496666D01*
X106034218Y-89499500D01*
X95942231Y-89499500D01*
X95912794Y-89490856D01*
X95882805Y-89484333D01*
X95877788Y-89480577D01*
X95875192Y-89479815D01*
X95854551Y-89463182D01*
X95803489Y-89412121D01*
X95770003Y-89350798D01*
X95774987Y-89281107D01*
X95790852Y-89251552D01*
X95841858Y-89181349D01*
X95841863Y-89181341D01*
X95934755Y-88999031D01*
X95997990Y-88804417D01*
X96030000Y-88602317D01*
X96030000Y-88397682D01*
X95997990Y-88195582D01*
X95934755Y-88000968D01*
X95841859Y-87818650D01*
X95809474Y-87774077D01*
X95809474Y-87774076D01*
X95130000Y-88453551D01*
X95130000Y-88447339D01*
X95102741Y-88345606D01*
X95050080Y-88254394D01*
X94975606Y-88179920D01*
X94884394Y-88127259D01*
X94782661Y-88100000D01*
X94776446Y-88100000D01*
X95455922Y-87420524D01*
X95455921Y-87420523D01*
X95411359Y-87388147D01*
X95411350Y-87388141D01*
X95229031Y-87295244D01*
X95034417Y-87232009D01*
X94832317Y-87200000D01*
X94627683Y-87200000D01*
X94425582Y-87232009D01*
X94230968Y-87295244D01*
X94048644Y-87388143D01*
X94004077Y-87420523D01*
X94004077Y-87420524D01*
X94683554Y-88100000D01*
X94677339Y-88100000D01*
X94575606Y-88127259D01*
X94484394Y-88179920D01*
X94409920Y-88254394D01*
X94357259Y-88345606D01*
X94330000Y-88447339D01*
X94330000Y-88453553D01*
X93650524Y-87774077D01*
X93650523Y-87774077D01*
X93618143Y-87818644D01*
X93525244Y-88000968D01*
X93462009Y-88195582D01*
X93430000Y-88397682D01*
X93430000Y-88602317D01*
X93462009Y-88804417D01*
X93525244Y-88999031D01*
X93618142Y-89181352D01*
X93669147Y-89251555D01*
X93692627Y-89317361D01*
X93676802Y-89385415D01*
X93656511Y-89412121D01*
X93587287Y-89481345D01*
X93495187Y-89630663D01*
X93495186Y-89630666D01*
X93440001Y-89797203D01*
X93440001Y-89797204D01*
X93440000Y-89797204D01*
X93429500Y-89899983D01*
X93429500Y-90834217D01*
X93409815Y-90901256D01*
X93393181Y-90921898D01*
X86776488Y-97538590D01*
X86715165Y-97572075D01*
X86645473Y-97567091D01*
X86589540Y-97525219D01*
X86585705Y-97519800D01*
X86507139Y-97402217D01*
X86364686Y-97259764D01*
X86364655Y-97259735D01*
X83951819Y-94846899D01*
X83918334Y-94785576D01*
X83915500Y-94759218D01*
X83915500Y-86252627D01*
X83935185Y-86185588D01*
X83987989Y-86139833D01*
X84057147Y-86129889D01*
X84120703Y-86158914D01*
X84138766Y-86178316D01*
X84197809Y-86257187D01*
X84197812Y-86257190D01*
X84312906Y-86343350D01*
X84312913Y-86343354D01*
X84447620Y-86393596D01*
X84447627Y-86393598D01*
X84507155Y-86399999D01*
X84507172Y-86400000D01*
X85205000Y-86400000D01*
X85205000Y-85375277D01*
X85281306Y-85419333D01*
X85395756Y-85450000D01*
X85514244Y-85450000D01*
X85628694Y-85419333D01*
X85705000Y-85375277D01*
X85705000Y-86400000D01*
X86402828Y-86400000D01*
X86402844Y-86399999D01*
X86462372Y-86393598D01*
X86462379Y-86393596D01*
X86597086Y-86343354D01*
X86597093Y-86343350D01*
X86712187Y-86257190D01*
X86712190Y-86257187D01*
X86798350Y-86142093D01*
X86798354Y-86142086D01*
X86848596Y-86007379D01*
X86848598Y-86007372D01*
X86854999Y-85947844D01*
X86855000Y-85947827D01*
X86855000Y-85250000D01*
X85830278Y-85250000D01*
X85874333Y-85173694D01*
X85905000Y-85059244D01*
X85905000Y-84940756D01*
X85874333Y-84826306D01*
X85830278Y-84750000D01*
X86855000Y-84750000D01*
X86855000Y-84052172D01*
X86854999Y-84052155D01*
X86848598Y-83992627D01*
X86848596Y-83992620D01*
X86798354Y-83857913D01*
X86798350Y-83857906D01*
X86712190Y-83742812D01*
X86712187Y-83742809D01*
X86597093Y-83656649D01*
X86597086Y-83656645D01*
X86462379Y-83606403D01*
X86462372Y-83606401D01*
X86402844Y-83600000D01*
X86029281Y-83600000D01*
X85962242Y-83580315D01*
X85916487Y-83527511D01*
X85906543Y-83458353D01*
X85935568Y-83394797D01*
X85941600Y-83388319D01*
X85988840Y-83341079D01*
X86367778Y-82962141D01*
X86367782Y-82962139D01*
X86507139Y-82822782D01*
X86616632Y-82658914D01*
X86692051Y-82476835D01*
X86704632Y-82413582D01*
X86730500Y-82283543D01*
X86730500Y-73031469D01*
X86750185Y-72964430D01*
X86766819Y-72943788D01*
X86798242Y-72912365D01*
X86927815Y-72734022D01*
X87027895Y-72537606D01*
X87096015Y-72327951D01*
X87130500Y-72110222D01*
X87130500Y-71889778D01*
X87096015Y-71672049D01*
X87027895Y-71462394D01*
X87027895Y-71462393D01*
X86963432Y-71335880D01*
X86927815Y-71265978D01*
X86869501Y-71185715D01*
X86798247Y-71087641D01*
X86798243Y-71087636D01*
X86642363Y-70931756D01*
X86642358Y-70931752D01*
X86464025Y-70802187D01*
X86464024Y-70802186D01*
X86464022Y-70802185D01*
X86401096Y-70770122D01*
X86267606Y-70702104D01*
X86267603Y-70702103D01*
X86057952Y-70633985D01*
X85903359Y-70609500D01*
X85840222Y-70599500D01*
X85619778Y-70599500D01*
X85556641Y-70609500D01*
X85402047Y-70633985D01*
X85192396Y-70702103D01*
X85192393Y-70702104D01*
X84995974Y-70802187D01*
X84817641Y-70931752D01*
X84817636Y-70931756D01*
X84767463Y-70981929D01*
X84706140Y-71015413D01*
X84636448Y-71010428D01*
X84580515Y-70968557D01*
X84563601Y-70937580D01*
X84533797Y-70857671D01*
X84533793Y-70857664D01*
X84447547Y-70742455D01*
X84447544Y-70742452D01*
X84332335Y-70656206D01*
X84332328Y-70656202D01*
X84197482Y-70605908D01*
X84197483Y-70605908D01*
X84137883Y-70599501D01*
X84137881Y-70599500D01*
X84137873Y-70599500D01*
X84137864Y-70599500D01*
X82242129Y-70599500D01*
X82242123Y-70599501D01*
X82182516Y-70605908D01*
X82047671Y-70656202D01*
X82047664Y-70656206D01*
X81932455Y-70742452D01*
X81932452Y-70742455D01*
X81846206Y-70857664D01*
X81846202Y-70857671D01*
X81795908Y-70992517D01*
X81789501Y-71052116D01*
X81789500Y-71052135D01*
X81789500Y-72947870D01*
X81789501Y-72947876D01*
X81795908Y-73007483D01*
X81846202Y-73142328D01*
X81846206Y-73142335D01*
X81904485Y-73220185D01*
X81928903Y-73285649D01*
X81914052Y-73353922D01*
X81892900Y-73382177D01*
X78849478Y-76425601D01*
X78317220Y-76957859D01*
X78317218Y-76957861D01*
X78247538Y-77027540D01*
X78177859Y-77097219D01*
X78068371Y-77261079D01*
X78068364Y-77261092D01*
X77992950Y-77443160D01*
X77992947Y-77443170D01*
X77954500Y-77636456D01*
X77203835Y-77636456D01*
X77150925Y-67477682D01*
X143430000Y-67477682D01*
X143430000Y-67682317D01*
X143462009Y-67884417D01*
X143525244Y-68079031D01*
X143618141Y-68261350D01*
X143618147Y-68261359D01*
X143650523Y-68305921D01*
X143650524Y-68305922D01*
X144330000Y-67626446D01*
X144330000Y-67632661D01*
X144357259Y-67734394D01*
X144409920Y-67825606D01*
X144484394Y-67900080D01*
X144575606Y-67952741D01*
X144677339Y-67980000D01*
X144683553Y-67980000D01*
X144004076Y-68659474D01*
X144048650Y-68691859D01*
X144230968Y-68784755D01*
X144425582Y-68847990D01*
X144627683Y-68880000D01*
X144832317Y-68880000D01*
X145034417Y-68847990D01*
X145229031Y-68784755D01*
X145411349Y-68691859D01*
X145455921Y-68659474D01*
X144776447Y-67980000D01*
X144782661Y-67980000D01*
X144884394Y-67952741D01*
X144975606Y-67900080D01*
X145050080Y-67825606D01*
X145102741Y-67734394D01*
X145130000Y-67632661D01*
X145130000Y-67626447D01*
X145809474Y-68305921D01*
X145841859Y-68261349D01*
X145934755Y-68079031D01*
X145997990Y-67884417D01*
X146030000Y-67682317D01*
X146030000Y-67477682D01*
X145997990Y-67275582D01*
X145934755Y-67080968D01*
X145841859Y-66898650D01*
X145809474Y-66854077D01*
X145809474Y-66854076D01*
X145130000Y-67533551D01*
X145130000Y-67527339D01*
X145102741Y-67425606D01*
X145050080Y-67334394D01*
X144975606Y-67259920D01*
X144884394Y-67207259D01*
X144782661Y-67180000D01*
X144776446Y-67180000D01*
X145455922Y-66500524D01*
X145455921Y-66500523D01*
X145411359Y-66468147D01*
X145411350Y-66468141D01*
X145229031Y-66375244D01*
X145034417Y-66312009D01*
X144832317Y-66280000D01*
X144627683Y-66280000D01*
X144425582Y-66312009D01*
X144230968Y-66375244D01*
X144048644Y-66468143D01*
X144004077Y-66500523D01*
X144004077Y-66500524D01*
X144683554Y-67180000D01*
X144677339Y-67180000D01*
X144575606Y-67207259D01*
X144484394Y-67259920D01*
X144409920Y-67334394D01*
X144357259Y-67425606D01*
X144330000Y-67527339D01*
X144330000Y-67533553D01*
X143650524Y-66854077D01*
X143650523Y-66854077D01*
X143618143Y-66898644D01*
X143525244Y-67080968D01*
X143462009Y-67275582D01*
X143430000Y-67477682D01*
X77150925Y-67477682D01*
X77098008Y-57317648D01*
X143429500Y-57317648D01*
X143429500Y-57522351D01*
X143461522Y-57724534D01*
X143524781Y-57919223D01*
X143617715Y-58101613D01*
X143738028Y-58267213D01*
X143882786Y-58411971D01*
X144037749Y-58524556D01*
X144048390Y-58532287D01*
X144158127Y-58588201D01*
X144230776Y-58625218D01*
X144230778Y-58625218D01*
X144230781Y-58625220D01*
X144305581Y-58649524D01*
X144425465Y-58688477D01*
X144526557Y-58704488D01*
X144627648Y-58720500D01*
X144627649Y-58720500D01*
X144832351Y-58720500D01*
X144832352Y-58720500D01*
X145034534Y-58688477D01*
X145229219Y-58625220D01*
X145411610Y-58532287D01*
X145532877Y-58444181D01*
X145598683Y-58420702D01*
X145605762Y-58420500D01*
X153684218Y-58420500D01*
X153713658Y-58429144D01*
X153743645Y-58435668D01*
X153748660Y-58439422D01*
X153751257Y-58440185D01*
X153771899Y-58456819D01*
X153903281Y-58588201D01*
X153936766Y-58649524D01*
X153938073Y-58656483D01*
X153961523Y-58804534D01*
X154024780Y-58999219D01*
X154092159Y-59131458D01*
X154117715Y-59181613D01*
X154238028Y-59347213D01*
X154382786Y-59491971D01*
X154537749Y-59604556D01*
X154548390Y-59612287D01*
X154660528Y-59669424D01*
X154730776Y-59705218D01*
X154730778Y-59705218D01*
X154730781Y-59705220D01*
X154835137Y-59739127D01*
X154925465Y-59768477D01*
X155026557Y-59784488D01*
X155127648Y-59800500D01*
X155127649Y-59800500D01*
X155332351Y-59800500D01*
X155332352Y-59800500D01*
X155534534Y-59768477D01*
X155729219Y-59705220D01*
X155911610Y-59612287D01*
X156004590Y-59544732D01*
X156077213Y-59491971D01*
X156077215Y-59491968D01*
X156077219Y-59491966D01*
X156221966Y-59347219D01*
X156221968Y-59347215D01*
X156221971Y-59347213D01*
X156274732Y-59274590D01*
X156342287Y-59181610D01*
X156435220Y-58999219D01*
X156498477Y-58804534D01*
X156530500Y-58602352D01*
X156530500Y-58397648D01*
X156498477Y-58195466D01*
X156435220Y-58000781D01*
X156435218Y-58000778D01*
X156435218Y-58000776D01*
X156393662Y-57919219D01*
X156342287Y-57818390D01*
X156334556Y-57807749D01*
X156221971Y-57652786D01*
X156077213Y-57508028D01*
X155911613Y-57387715D01*
X155911612Y-57387714D01*
X155911610Y-57387713D01*
X155854653Y-57358691D01*
X155729223Y-57294781D01*
X155534535Y-57231523D01*
X155386483Y-57208073D01*
X155323349Y-57178143D01*
X155318201Y-57173281D01*
X154934209Y-56789289D01*
X154934206Y-56789285D01*
X154934206Y-56789286D01*
X154927139Y-56782219D01*
X154927139Y-56782218D01*
X154787782Y-56642861D01*
X154787781Y-56642860D01*
X154787780Y-56642859D01*
X154623920Y-56533371D01*
X154623911Y-56533366D01*
X154551315Y-56503296D01*
X154495165Y-56480038D01*
X154441836Y-56457949D01*
X154441832Y-56457948D01*
X154441828Y-56457946D01*
X154345188Y-56438724D01*
X154248544Y-56419500D01*
X154248541Y-56419500D01*
X145605762Y-56419500D01*
X145538723Y-56399815D01*
X145532877Y-56395818D01*
X145411613Y-56307715D01*
X145411612Y-56307714D01*
X145411610Y-56307713D01*
X145354653Y-56278691D01*
X145229223Y-56214781D01*
X145034534Y-56151522D01*
X144859995Y-56123878D01*
X144832352Y-56119500D01*
X144627648Y-56119500D01*
X144603329Y-56123351D01*
X144425465Y-56151522D01*
X144230776Y-56214781D01*
X144048386Y-56307715D01*
X143882786Y-56428028D01*
X143738028Y-56572786D01*
X143617715Y-56738386D01*
X143524781Y-56920776D01*
X143461522Y-57115465D01*
X143429500Y-57317648D01*
X77098008Y-57317648D01*
X77000654Y-38625633D01*
X77019989Y-38558494D01*
X77072554Y-38512464D01*
X77125631Y-38500993D01*
X203376981Y-39499027D01*
G37*
%TD.AperFunction*%
%TD*%
M02*
